<?xml version="1.0" encoding="utf-8"?>
<!-- Generator: Adobe Illustrator 23.1.0, SVG Export Plug-In . SVG Version: 6.00 Build 0)  -->
<svg version="1.1" id="Capa_1" xmlns="http://www.w3.org/2000/svg" xmlns:xlink="http://www.w3.org/1999/xlink" x="0px" y="0px"
	 viewBox="0 0 138.85 84.69" style="enable-background:new 0 0 138.85 84.69;" xml:space="preserve">
<style type="text/css">
	.st0{fill:#898B8C;}
	.st1{fill:#E2B0D9;}
	.st2{fill:none;}
</style>
<g>
	<path class="st0" d="M57.96,10.45c0.02,0.15,0.01,0.26-0.04,0.34c-0.05,0.07-0.11,0.12-0.19,0.13c-0.07,0.01-0.14-0.01-0.21-0.07
		c-0.06-0.06-0.11-0.17-0.13-0.32c-0.25-1.87-0.81-3.46-1.68-4.78s-1.94-2.37-3.21-3.16c-1.27-0.78-2.66-1.31-4.18-1.57
		S45.28,0.75,43.77,1c-1.72,0.3-3.36,0.92-4.93,1.87s-2.89,2.22-3.96,3.81s-1.79,3.52-2.17,5.77c-0.37,2.25-0.24,4.82,0.41,7.71
		c0.42,1.92,1.01,3.77,1.76,5.55c0.75,1.78,1.56,3.54,2.43,5.28c0.87,1.74,1.79,3.48,2.74,5.21c0.96,1.73,1.86,3.49,2.71,5.28
		c0.85,1.79,1.61,3.63,2.28,5.51c0.67,1.88,1.18,3.85,1.53,5.92c1.22-0.25,2.51-0.7,3.88-1.36c1.37-0.66,2.68-1.42,3.92-2.3
		c1.24-0.87,2.36-1.8,3.34-2.8s1.71-1.94,2.18-2.84c0.12-0.2,0.25-0.27,0.37-0.22s0.24,0.1,0.34,0.15
		c-0.52,0.97-1.25,1.95-2.17,2.95c-0.92,1-1.99,1.94-3.21,2.84c-1.22,0.9-2.56,1.72-4.01,2.46c-1.46,0.75-2.97,1.34-4.54,1.79
		c0.37,2.64,0.37,5.22,0,7.73s-1.07,4.89-2.09,7.11c-1.02,2.23-2.34,4.28-3.96,6.16c-1.62,1.88-3.46,3.53-5.53,4.95
		s-4.34,2.57-6.83,3.45s-5.13,1.43-7.92,1.62c-1.17,0.1-2.43,0.09-3.77-0.02c-1.34-0.11-2.71-0.33-4.09-0.65s-2.73-0.76-4.03-1.31
		c-1.31-0.55-2.51-1.21-3.6-1.98c-1.52-1.07-2.68-2.31-3.49-3.72s-1.26-2.86-1.34-4.37c-0.09-1.51,0.19-3.02,0.82-4.54
		c0.63-1.52,1.65-2.91,3.04-4.18c1.57-1.44,3.35-2.59,5.34-3.44s4.11-1.51,6.37-2c2.25-0.49,4.59-0.85,7-1.1s4.8-0.49,7.17-0.71
		c2.37-0.22,4.67-0.5,6.91-0.84c2.24-0.34,4.32-0.84,6.24-1.51c-0.57-2.94-1.42-5.76-2.54-8.48c-1.12-2.71-2.31-5.42-3.57-8.1
		c-1.26-2.69-2.46-5.4-3.6-8.14c-1.15-2.74-2.02-5.59-2.61-8.55c-0.65-3.19-0.72-6.01-0.21-8.48c0.51-2.46,1.39-4.56,2.63-6.29
		s2.76-3.11,4.54-4.13c1.78-1.02,3.64-1.67,5.58-1.94c1.67-0.22,3.34-0.18,5,0.13c1.67,0.31,3.18,0.9,4.54,1.77s2.51,2,3.45,3.4
		C57.07,6.84,57.68,8.51,57.96,10.45z M20.31,83.87c2.59-0.2,5.01-0.71,7.26-1.53s4.29-1.9,6.11-3.23s3.4-2.88,4.76-4.63
		c1.36-1.76,2.45-3.67,3.27-5.75s1.35-4.28,1.59-6.61s0.14-4.71-0.28-7.15c-1.89,0.65-3.95,1.13-6.16,1.46
		c-2.22,0.32-4.5,0.6-6.85,0.82s-4.72,0.45-7.1,0.69C20.53,58.17,18.23,58.52,16,59c-2.23,0.47-4.33,1.12-6.31,1.94
		s-3.74,1.93-5.28,3.32c-1.32,1.19-2.3,2.5-2.93,3.9c-0.63,1.41-0.92,2.81-0.86,4.22s0.47,2.77,1.23,4.09s1.86,2.49,3.31,3.51
		c1.07,0.77,2.26,1.42,3.57,1.94c1.31,0.52,2.64,0.95,4,1.27s2.69,0.54,4,0.63C18.02,83.93,19.22,83.94,20.31,83.87z"/>
	<path class="st0" d="M72.11,43.61c0.12-0.2,0.25-0.27,0.37-0.22s0.24,0.1,0.34,0.15l-2.35,4.59c-0.47,0.9-0.98,1.79-1.53,2.69
		c-0.55,0.9-1.14,1.71-1.77,2.43s-1.31,1.29-2.02,1.7s-1.46,0.58-2.26,0.5c-0.95-0.1-1.69-0.45-2.22-1.06
		c-0.54-0.61-0.93-1.36-1.18-2.26c-0.25-0.9-0.37-1.87-0.35-2.91c0.01-1.05,0.09-2.08,0.24-3.1c0.07-0.6,0.21-1.32,0.41-2.17
		s0.48-1.64,0.84-2.39s0.83-1.34,1.4-1.79s1.28-0.55,2.13-0.3c-0.07,0.25-0.19,0.6-0.35,1.05s-0.34,0.96-0.52,1.53
		c-0.19,0.57-0.38,1.2-0.58,1.87s-0.39,1.37-0.56,2.09c-0.25,1-0.45,1.99-0.6,2.97c-0.15,0.98-0.21,1.88-0.17,2.69
		c0.04,0.81,0.19,1.49,0.45,2.04s0.69,0.88,1.29,1.01c0.62,0.12,1.25-0.01,1.89-0.39c0.63-0.39,1.24-0.91,1.81-1.59
		c0.57-0.67,1.12-1.44,1.64-2.32c0.52-0.87,1.01-1.72,1.46-2.54c0.37-0.72,0.74-1.43,1.1-2.13C71.37,45.04,71.74,44.33,72.11,43.61z
		 M63.52,38.27c-0.42,0-0.78-0.15-1.08-0.45c-0.3-0.3-0.45-0.66-0.45-1.08c0-0.42,0.15-0.78,0.45-1.08c0.3-0.3,0.66-0.45,1.08-0.45
		c0.42,0,0.78,0.15,1.06,0.45c0.29,0.3,0.43,0.66,0.43,1.08c0,0.42-0.14,0.78-0.43,1.08C64.3,38.12,63.94,38.27,63.52,38.27z"/>
	<path class="st0" d="M79.24,36.96c-0.55,0.7-1.1,1.37-1.66,2.02c-0.56,0.65-1.13,1.31-1.7,1.98c-0.37,1.19-0.82,2.65-1.34,4.35
		c-0.52,1.71-1.01,3.47-1.48,5.28c-0.46,1.82-0.85,3.59-1.18,5.3c-0.32,1.72-0.46,3.21-0.41,4.48c0.03,0.87,0.2,1.69,0.52,2.45
		c0.32,0.76,0.88,1.25,1.68,1.48c0.55,0.15,1.11,0.09,1.68-0.19c0.57-0.27,1.13-0.67,1.66-1.18c0.54-0.51,1.05-1.11,1.55-1.79
		c0.5-0.69,0.95-1.37,1.36-2.05c0.41-0.69,0.78-1.34,1.1-1.96s0.58-1.12,0.78-1.49c0.57-1.12,1.12-2.26,1.64-3.42
		s1.01-2.26,1.48-3.31c0.46-1.05,0.87-2.01,1.23-2.89s0.68-1.62,0.95-2.22c0.12-0.27,0.25-0.44,0.37-0.49
		c0.12-0.05,0.29-0.02,0.49,0.07c-0.27,0.57-0.6,1.33-0.99,2.26c-0.39,0.93-0.82,1.97-1.31,3.12c-0.49,1.15-1.01,2.35-1.57,3.6
		c-0.56,1.26-1.15,2.5-1.77,3.72c-0.37,0.7-0.86,1.58-1.46,2.65s-1.28,2.1-2.05,3.08c-0.77,0.98-1.61,1.8-2.52,2.45
		c-0.91,0.65-1.85,0.9-2.82,0.75c-0.52-0.1-0.98-0.29-1.38-0.56c-0.4-0.27-0.74-0.62-1.03-1.03s-0.52-0.87-0.69-1.38
		c-0.17-0.51-0.31-1.03-0.41-1.55c-0.17-1-0.24-2.15-0.19-3.47c0.05-1.32,0.19-2.73,0.41-4.24s0.5-3.06,0.84-4.67
		c0.34-1.61,0.7-3.22,1.1-4.84c0.45-1.82,0.91-3.77,1.38-5.84c0.47-2.08,0.96-4.17,1.48-6.27c0.51-2.1,1.04-4.17,1.59-6.2
		c0.55-2.03,1.13-3.91,1.76-5.66c0.52-1.47,1.12-2.91,1.79-4.33s1.39-2.73,2.17-3.92c0.77-1.2,1.59-2.23,2.46-3.1
		s1.77-1.49,2.69-1.87c0.55-0.22,1.13-0.36,1.74-0.41c0.61-0.05,1.2,0.01,1.77,0.17s1.09,0.43,1.55,0.8
		c0.46,0.37,0.83,0.85,1.1,1.42c0.4,0.92,0.57,1.92,0.52,3.01c-0.05,1.08-0.23,2.18-0.54,3.31c-0.31,1.12-0.71,2.2-1.19,3.25
		c-0.49,1.05-0.97,1.99-1.44,2.84c-0.77,1.39-1.64,2.82-2.6,4.28c-0.96,1.46-1.95,2.89-2.99,4.31c-1.03,1.42-2.08,2.8-3.14,4.15
		C81.19,34.54,80.19,35.79,79.24,36.96z M81.6,19.82c-1,3.26-1.91,6.55-2.75,9.86c-0.83,3.31-1.7,6.62-2.6,9.93
		c0.5-0.6,1.11-1.34,1.83-2.22s1.51-1.86,2.35-2.93c0.85-1.07,1.72-2.21,2.63-3.42c0.91-1.21,1.8-2.43,2.69-3.68
		c0.88-1.24,1.73-2.49,2.54-3.73s1.54-2.45,2.18-3.62c0.42-0.75,0.85-1.61,1.29-2.58s0.8-1.97,1.1-3.01
		c0.3-1.03,0.49-2.05,0.56-3.06s-0.04-1.94-0.34-2.78c-0.2-0.55-0.5-0.99-0.9-1.33s-0.84-0.57-1.33-0.69
		c-0.49-0.12-1-0.14-1.53-0.04c-0.54,0.1-1.04,0.31-1.51,0.63c-0.6,0.42-1.18,1.06-1.74,1.9c-0.56,0.85-1.1,1.84-1.62,2.97
		c-0.52,1.13-1.03,2.37-1.51,3.72S82.02,18.45,81.6,19.82z"/>
	<path class="st0" d="M105.83,43.61c0.12-0.2,0.25-0.27,0.37-0.22s0.25,0.1,0.37,0.15c-0.25,0.45-0.52,0.93-0.82,1.44
		s-0.63,1.02-0.99,1.53s-0.75,0.98-1.18,1.42c-0.42,0.44-0.87,0.8-1.34,1.1c-0.6,0.37-1.2,0.59-1.79,0.65c-0.6,0.06-1.16,0-1.7-0.19
		c-0.54-0.19-1.03-0.49-1.49-0.9s-0.85-0.92-1.18-1.51c-0.3,0.62-0.66,1.33-1.08,2.13s-0.92,1.54-1.48,2.24
		c-0.56,0.7-1.18,1.28-1.87,1.74c-0.69,0.46-1.44,0.67-2.26,0.62c-0.55-0.03-1.01-0.17-1.4-0.43c-0.39-0.26-0.7-0.58-0.93-0.97
		c-0.24-0.39-0.42-0.82-0.54-1.29s-0.2-0.95-0.22-1.42c-0.07-1.17,0.02-2.4,0.28-3.7c0.26-1.29,0.55-2.5,0.88-3.62
		c0.27-1,0.68-1.72,1.21-2.18c0.54-0.46,1.24-0.62,2.11-0.47c-0.45,1.62-0.95,3.27-1.49,4.97c-0.55,1.69-0.9,3.37-1.05,5.04
		c-0.05,0.32-0.06,0.67-0.04,1.05c0.02,0.37,0.09,0.72,0.21,1.05c0.11,0.32,0.29,0.6,0.52,0.84c0.24,0.24,0.57,0.37,0.99,0.39
		c0.65,0.05,1.28-0.19,1.89-0.71s1.16-1.16,1.66-1.9c0.5-0.75,0.95-1.51,1.34-2.28c0.4-0.77,0.71-1.41,0.93-1.9
		c-0.22-0.6-0.39-1.3-0.5-2.11s-0.15-1.64-0.11-2.48c0.04-0.85,0.15-1.66,0.34-2.43c0.19-0.77,0.47-1.42,0.84-1.94
		c0.25-0.35,0.52-0.59,0.8-0.73c0.29-0.14,0.56-0.18,0.82-0.13s0.49,0.17,0.69,0.35c0.2,0.19,0.34,0.42,0.41,0.69
		c0.15,0.55,0.15,1.21,0,2c-0.15,0.78-0.37,1.6-0.67,2.45c-0.3,0.85-0.63,1.66-0.99,2.45c-0.36,0.78-0.67,1.45-0.91,2
		c0.25,0.57,0.56,1.07,0.93,1.49c0.37,0.42,0.8,0.75,1.27,0.97c0.47,0.22,0.98,0.32,1.53,0.3c0.55-0.02,1.12-0.21,1.72-0.56
		c0.45-0.25,0.86-0.58,1.25-0.99s0.74-0.85,1.06-1.31c0.32-0.46,0.62-0.92,0.9-1.38C105.4,44.44,105.63,44.01,105.83,43.61z
		 M96.8,37.67c-0.3,0.47-0.54,1.04-0.71,1.7s-0.28,1.34-0.32,2.05s-0.02,1.42,0.06,2.13c0.07,0.71,0.19,1.35,0.34,1.92
		c0.22-0.5,0.49-1.09,0.8-1.77c0.31-0.68,0.6-1.39,0.86-2.11s0.46-1.43,0.6-2.11s0.16-1.28,0.06-1.77c-0.1-0.42-0.32-0.66-0.65-0.71
		C97.49,36.95,97.14,37.18,96.8,37.67z"/>
	<path class="st0" d="M120.58,43.61c0.12-0.2,0.24-0.27,0.35-0.22s0.23,0.1,0.35,0.15c-0.52,1-1.11,2.13-1.77,3.42
		c-0.66,1.28-1.41,2.5-2.26,3.64c-0.85,1.15-1.8,2.11-2.86,2.89s-2.26,1.18-3.6,1.18c-1.05-0.03-1.95-0.26-2.73-0.71
		c-0.77-0.45-1.41-1.03-1.9-1.74c-0.5-0.71-0.86-1.52-1.08-2.43s-0.3-1.84-0.22-2.78c0.07-1.02,0.3-2.01,0.69-2.97
		c0.39-0.96,0.9-1.8,1.55-2.52s1.42-1.28,2.32-1.68s1.89-0.55,2.99-0.45c0.97,0.07,1.73,0.35,2.28,0.82
		c0.55,0.47,0.86,0.99,0.95,1.55c0.09,0.56-0.06,1.1-0.43,1.62s-0.98,0.87-1.83,1.05c-0.72,0.15-1.49,0.14-2.32-0.04
		c-0.82-0.17-1.49-0.45-2.02-0.82c-0.42,0.65-0.78,1.31-1.08,2s-0.51,1.33-0.63,1.92c-0.12,0.75-0.16,1.5-0.09,2.26
		c0.06,0.76,0.24,1.44,0.52,2.05c0.29,0.61,0.7,1.11,1.23,1.49c0.54,0.39,1.24,0.59,2.11,0.62c1.1,0.02,2.13-0.34,3.1-1.1
		s1.85-1.69,2.65-2.78c0.8-1.1,1.51-2.23,2.15-3.42C119.63,45.43,120.16,44.43,120.58,43.61z M113.23,40.96
		c-0.8-0.05-1.51,0.14-2.15,0.56c-0.63,0.42-1.19,0.93-1.66,1.53c0.22,0.2,0.5,0.37,0.82,0.5c0.32,0.14,0.66,0.24,1.01,0.3
		c0.35,0.06,0.7,0.1,1.06,0.11c0.36,0.01,0.68-0.02,0.95-0.09c0.55-0.1,0.96-0.3,1.25-0.62c0.29-0.31,0.43-0.63,0.43-0.97
		s-0.14-0.63-0.43-0.9C114.23,41.13,113.8,40.98,113.23,40.96z"/>
	<path class="st0" d="M137.84,43.61c0.12-0.2,0.25-0.27,0.37-0.22s0.24,0.1,0.34,0.15c-0.27,0.57-0.61,1.32-1.01,2.24
		c-0.4,0.92-0.85,1.95-1.34,3.08c-0.5,1.13-1.04,2.32-1.62,3.57c-0.59,1.24-1.2,2.48-1.85,3.7c-0.25,0.45-0.55,1-0.91,1.64
		c-0.36,0.65-0.77,1.32-1.21,2.02c-0.45,0.7-0.93,1.38-1.46,2.04c-0.52,0.66-1.08,1.24-1.66,1.74c-0.59,0.5-1.19,0.88-1.81,1.14
		c-0.62,0.26-1.26,0.33-1.9,0.21c-0.57-0.1-1.07-0.33-1.49-0.69s-0.77-0.79-1.05-1.29c-0.27-0.5-0.49-1.03-0.63-1.61
		c-0.15-0.57-0.25-1.13-0.3-1.68c-0.1-1.05-0.06-2.1,0.13-3.16c0.19-1.06,0.41-2.1,0.67-3.14s0.51-2.04,0.75-3.02
		s0.36-1.9,0.37-2.76c0.01-0.86-0.14-1.66-0.45-2.39s-0.88-1.38-1.7-1.92c-0.35-0.25-0.74-0.54-1.18-0.86s-0.78-0.71-1.03-1.16
		c-0.32-0.55-0.45-1.09-0.39-1.62c0.06-0.54,0.25-0.98,0.56-1.34s0.72-0.61,1.21-0.75c0.5-0.14,1.03-0.08,1.61,0.17
		c0.45,0.2,0.78,0.47,1.01,0.8c0.22,0.34,0.37,0.7,0.45,1.08c0.07,0.39,0.08,0.8,0.02,1.23c-0.06,0.44-0.16,0.84-0.28,1.21
		c1.15,0.57,1.97,1.26,2.46,2.07c0.5,0.81,0.77,1.69,0.82,2.65c0.05,0.96-0.06,1.97-0.34,3.04c-0.27,1.07-0.6,2.15-0.99,3.25
		s-0.77,2.2-1.14,3.31s-0.63,2.16-0.78,3.16c-0.07,0.42-0.11,0.88-0.09,1.38c0.01,0.5,0.09,0.97,0.22,1.42
		c0.14,0.45,0.34,0.85,0.62,1.19c0.27,0.35,0.65,0.58,1.12,0.71c0.55,0.15,1.11,0.1,1.68-0.15s1.13-0.63,1.68-1.14
		s1.07-1.1,1.57-1.77c0.5-0.67,0.96-1.35,1.38-2.04c0.42-0.69,0.8-1.33,1.14-1.94c0.34-0.61,0.6-1.1,0.8-1.48
		c0.62-1.17,1.21-2.35,1.77-3.55s1.08-2.33,1.57-3.42c0.49-1.08,0.92-2.07,1.31-2.95C137.23,44.87,137.56,44.16,137.84,43.61z
		 M121.44,41.74c0.1-0.27,0.17-0.59,0.22-0.95s0.06-0.71,0.02-1.05s-0.14-0.64-0.32-0.92c-0.17-0.27-0.44-0.46-0.78-0.56
		c-0.3-0.1-0.57-0.11-0.8-0.02c-0.24,0.09-0.43,0.22-0.58,0.41s-0.23,0.42-0.24,0.69c-0.01,0.27,0.07,0.54,0.24,0.78
		c0.25,0.37,0.6,0.69,1.06,0.95S121.12,41.57,121.44,41.74z"/>
	<path class="st1" d="M57.44,79.84v-0.1h0.12c0.34,0,0.62-0.27,0.63-0.61v-2.55h-4.03v2.54c0.01,0.34,0.29,0.62,0.63,0.62h0.12v0.1
		h-2.15v-0.1h0.12c0.34,0,0.62-0.28,0.63-0.62v-5.46c-0.01-0.34-0.29-0.61-0.63-0.61h-0.12v-0.1h2.15v0.1h-0.12
		c-0.34,0-0.62,0.27-0.63,0.61v2.62h4.03v-2.63c-0.01-0.34-0.29-0.61-0.63-0.61h-0.12v-0.1h2.15v0.1h-0.12
		c-0.34,0-0.62,0.28-0.63,0.62v5.45c0.01,0.34,0.29,0.62,0.63,0.62h0.12v0.1L57.44,79.84z"/>
	<path class="st1" d="M69.07,79.17c0.2,0.4,0.5,0.57,0.76,0.57h0.07v0.1h-2.02v-0.1h0.08c0.22,0,0.48-0.21,0.35-0.59l-0.54-1.31
		h-2.49l-0.54,1.28c-0.15,0.39,0.11,0.62,0.34,0.62h0.08v0.1h-1.87v-0.1h0.08c0.26,0,0.57-0.17,0.77-0.57l2.04-4.36
		c0,0,0.36-0.76,0.38-1.01h0.09L69.07,79.17z M67.65,77.55l-1.11-2.69l-1.14,2.69H67.65z"/>
	<path class="st1" d="M73.54,79.84v-0.1h0.13c0.37,0,0.66-0.24,0.67-0.53v-4.64c-0.01-0.3-0.3-0.53-0.67-0.53h-0.13v-0.1h2.23v0.1
		h-0.13c-0.36,0-0.65,0.23-0.67,0.52v4.66c0.01,0.29,0.31,0.53,0.67,0.53h0.13v0.1h-2.23V79.84z"/>
	<path class="st1" d="M82.46,73.94c1.24,0,2,0.6,2,1.59c0,0.83-0.65,1.53-1.53,1.62c0.21,0.1,0.55,0.47,0.76,0.77
		c0,0,0.45,0.62,0.86,1.07c0.4,0.45,0.68,0.74,1.22,0.75v0.1h-0.31c-1.09,0-1.52-0.49-1.83-0.87c-0.11-0.13-0.89-1.25-0.96-1.35
		c-0.27-0.33-0.61-0.66-1-0.66v-0.09c0,0,0.24,0,0.56,0c0.54-0.01,1.16-0.02,1.45-0.85c0.05-0.14,0.08-0.35,0.07-0.56
		c-0.02-0.74-0.52-1.17-1.31-1.21c-0.55-0.03-1.04,0-1.13-0.01v4.96c0.01,0.3,0.24,0.53,0.56,0.53H82v0.1h-2v-0.1h0.13
		c0.31,0,0.55-0.23,0.56-0.52v-4.67c-0.01-0.29-0.25-0.51-0.56-0.51H80v-0.1h2.46V73.94z"/>
	<path class="st1" d="M97.99,76.94c0.39,0.36,0.49,0.8,0.49,1.2c0,1.09-0.71,1.84-1.84,1.84c-0.48,0-1.28-0.14-1.67-0.54
		c-0.07-0.3-0.04-0.93,0.11-1.37h0.09c-0.1,1.01,0.54,1.66,1.42,1.61c0.72-0.04,1.32-0.53,1.32-1.32c0-0.38-0.14-0.69-0.39-0.92
		l-1.88-1.75c-0.4-0.36-0.53-0.84-0.53-1.22c0-0.83,0.61-1.66,1.73-1.66c0.26,0,0.58,0.04,0.84,0.1h0.39v0.12v1.09h-0.09
		c0-0.63-0.49-1.01-1.11-1.01c-0.72,0-1.21,0.53-1.21,1.13c0,0.26,0.09,0.62,0.4,0.91L97.99,76.94z"/>
	<path class="st1" d="M107.83,79.17c0.2,0.4,0.5,0.57,0.76,0.57h0.07v0.1h-2.02v-0.1h0.08c0.22,0,0.48-0.21,0.35-0.59l-0.54-1.31
		h-2.49l-0.54,1.28c-0.15,0.39,0.11,0.62,0.34,0.62h0.08v0.1h-1.87v-0.1h0.08c0.26,0,0.57-0.17,0.77-0.57l2.04-4.36
		c0,0,0.36-0.76,0.38-1.01h0.09L107.83,79.17z M106.42,77.55l-1.11-2.69l-1.14,2.69H106.42z"/>
	<path class="st1" d="M116.85,78.43l-0.54,1.41h-4v-0.1h0.13c0.32,0,0.56-0.23,0.57-0.52v-4.65c-0.01-0.3-0.27-0.53-0.59-0.53h-0.12
		v-0.1h2.04v0.1h-0.12c-0.32,0-0.58,0.24-0.59,0.53v4.97h1.54c0.94-0.01,1.28-0.47,1.56-1.11
		C116.73,78.43,116.85,78.43,116.85,78.43z"/>
	<path class="st1" d="M127.27,76.89c0,1.83-1.48,3.09-3.32,3.09s-3.32-1.26-3.32-3.09c0-1.83,1.48-3.09,3.32-3.09
		S127.27,75.06,127.27,76.89z M126.54,76.89c0-1.66-1.14-2.79-2.59-2.79s-2.59,1.13-2.59,2.79s1.14,2.79,2.59,2.79
		S126.54,78.55,126.54,76.89z"/>
	<path class="st1" d="M138.17,73.94v0.1H138c-0.29,0-0.53,0.22-0.55,0.49v4.19c0,0.63,0.09,1.26,0.09,1.26h-0.09l-5.12-4.85v4.1
		c0.01,0.28,0.25,0.51,0.55,0.51h0.16v0.1h-1.86v-0.1h0.16c0.3,0,0.54-0.23,0.55-0.51v-4.21c0-0.67-0.09-1.23-0.09-1.23h0.11
		l5.1,4.81v-4.08c-0.02-0.27-0.26-0.49-0.55-0.49h-0.16v-0.1L138.17,73.94z"/>
	<line class="st2" x1="50.5" y1="68.27" x2="138.85" y2="68.27"/>
	<rect x="50.5" y="67.94" class="st1" width="88.35" height="0.66"/>
</g>
</svg>
