<svg version="1.1" id="Layer_1" xmlns="http://www.w3.org/2000/svg" xmlns:xlink="http://www.w3.org/1999/xlink" x="0px" y="0px"
	 width="100%" viewBox="0 0 850 501" enable-background="new 0 0 850 501" xml:space="preserve">
<path fill="#000000" opacity="1.000000" stroke="none" 
	d="
M1.000000,469.000000 
	C1.000000,313.076599 1.000000,157.153198 1.000000,1.000000 
	C141.687485,1.000000 282.375092,1.000000 423.811768,1.292101 
	C423.588806,2.418728 422.667847,3.323448 421.635681,4.075546 
	C417.263000,7.261825 415.074829,14.019135 416.752411,19.316378 
	C420.012634,29.610981 431.762756,33.990601 442.371979,28.865541 
	C453.017029,23.723181 454.127380,10.895032 444.604156,3.853127 
	C443.803802,3.261332 443.522461,1.967615 443.000000,0.999997 
	C454.354218,1.000000 465.708466,1.000000 477.706604,1.445106 
	C478.233704,3.207367 478.015137,4.524489 478.014709,5.841685 
	C477.997467,57.169754 477.998322,108.497826 478.010437,159.825897 
	C478.010742,161.104324 478.164124,162.382721 478.245819,163.656555 
	C485.307220,163.656555 492.029877,163.656555 499.000000,163.656555 
	C499.000000,109.209000 499.000000,55.104500 499.000000,1.000000 
	C509.687561,1.000000 520.375122,1.000000 531.706604,1.445119 
	C532.233704,3.207396 532.015076,4.524520 532.014648,5.841713 
	C531.997437,57.169777 531.998291,108.497841 532.010498,159.825912 
	C532.010803,161.104324 532.164185,162.382706 532.245850,163.656540 
	C539.307190,163.656540 546.029907,163.656540 553.000000,163.656540 
	C553.000000,109.208992 553.000000,55.104496 553.000000,1.000000 
	C652.276855,1.000000 751.553772,1.000000 851.000000,1.000000 
	C851.000000,158.020859 851.000000,315.041779 850.691833,472.814667 
	C841.960876,466.132568 831.879395,470.059326 821.981812,468.814911 
	C821.981812,479.936249 821.981812,490.389069 821.520142,500.915344 
	C815.380066,500.940582 809.701599,500.892365 804.176514,500.543213 
	C806.549072,497.572327 810.331848,495.091797 810.682800,492.195465 
	C811.591492,484.696808 810.987549,477.014893 810.987549,469.296204 
	C808.443420,469.296204 806.392456,469.296204 803.999756,469.296204 
	C803.999756,474.881958 804.379028,480.217529 803.847961,485.460876 
	C803.560059,488.303192 802.418396,491.888275 800.372070,493.473999 
	C798.572998,494.868134 794.327515,494.991302 792.351318,493.763031 
	C790.189941,492.419678 788.494873,488.982025 788.189636,486.277374 
	C787.563721,480.730255 788.001770,475.063049 788.001770,469.274658 
	C785.483032,469.274658 783.432556,469.274658 781.000000,469.274658 
	C781.000000,475.498840 781.408203,481.493500 780.888489,487.406586 
	C780.337219,493.678741 783.069763,497.709503 787.518616,500.916504 
	C782.713013,500.939850 778.365601,500.890869 774.011108,500.430695 
	C774.206787,498.119873 774.409546,496.220184 774.657043,493.901184 
	C768.550293,493.901184 762.480103,493.901184 755.951050,493.901184 
	C755.951050,485.455933 755.951050,477.419067 755.951050,469.300293 
	C753.091309,469.300293 750.712402,469.300293 747.981812,469.300293 
	C747.981812,480.012054 747.981812,490.427002 747.520142,500.915344 
	C741.380249,500.940674 735.701965,500.892548 730.195679,500.534363 
	C736.343872,498.339661 738.736938,495.258453 738.731079,489.192200 
	C735.445190,489.408173 732.099182,487.432892 729.647827,492.236267 
	C727.628723,496.192535 719.862122,495.909241 716.360596,492.614594 
	C713.235291,489.673920 712.672180,481.679321 715.349426,478.258698 
	C718.200439,474.615997 725.678406,473.286804 728.046448,476.941864 
	C731.243530,481.876678 734.779114,480.486694 738.763550,479.516876 
	C735.965942,471.400696 729.884644,467.277313 721.793945,468.010773 
	C711.834045,468.913696 706.666687,473.627045 705.038513,483.294037 
	C703.877563,490.186920 708.537109,497.663483 715.513977,500.916748 
	C701.708984,500.940765 688.366150,500.892487 675.184692,500.538269 
	C682.009460,497.112366 684.211670,491.133728 679.848938,486.220367 
	C677.926025,484.054840 674.456543,482.997223 671.489563,482.088196 
	C667.357788,480.822266 663.038696,480.167877 658.142883,479.109833 
	C661.819763,474.698700 668.756592,473.163300 671.204163,476.326324 
	C674.647583,480.776184 677.584778,477.836609 681.016541,477.607941 
	C678.033264,470.749969 677.187927,469.855469 670.729858,469.063599 
	C667.270691,468.639465 663.682983,468.696075 660.211243,469.071320 
	C654.621155,469.675507 651.183899,473.088776 651.001282,477.589111 
	C650.810303,482.294434 653.713623,485.693970 659.280762,486.934814 
	C663.081055,487.781799 666.982544,488.186096 670.766785,489.089783 
	C673.148865,489.658600 674.583740,491.327393 672.609192,493.653290 
	C670.450073,496.196472 660.708008,495.661987 659.464539,492.582672 
	C657.355164,487.358582 653.728638,489.213654 650.353943,489.273193 
	C650.533569,494.905151 652.987854,498.745667 657.518372,500.916565 
	C652.712830,500.939850 648.365479,500.890869 644.012817,500.437805 
	C644.378845,498.183380 644.750122,496.333038 645.227173,493.955750 
	C638.602173,493.955750 632.528503,493.955750 625.984375,493.955750 
	C625.984375,485.495361 625.984375,477.451202 625.984375,469.289185 
	C623.115601,469.289185 620.735413,469.289185 617.981812,469.289185 
	C617.981812,479.997040 617.981812,490.419495 617.534180,500.915222 
	C614.063782,500.939667 611.040955,500.890808 608.010986,500.384338 
	C608.003906,489.668762 608.003906,479.410706 608.003906,469.240540 
	C604.996948,469.240540 602.719666,469.240540 599.981812,469.240540 
	C599.981812,479.931030 599.981812,490.386475 599.544434,500.915222 
	C596.744080,500.939667 594.381165,500.890778 592.010193,500.467590 
	C588.409485,491.934265 584.822693,483.772644 581.222229,475.617035 
	C578.024536,468.373718 578.017822,468.376678 569.287231,469.350464 
	C564.519958,479.847107 559.752747,490.343750 554.554688,500.914459 
	C552.088745,500.939667 550.053467,500.890808 548.011230,500.384674 
	C548.004150,489.677063 548.004150,479.426697 548.004150,469.226624 
	C545.019104,469.226624 542.743530,469.226624 539.797302,469.226624 
	C539.797302,475.247131 539.797302,481.063110 539.797302,486.879089 
	C534.779114,482.665222 530.355103,478.424286 527.178040,473.395538 
	C524.290100,468.824371 520.837524,468.480499 515.981812,469.380249 
	C515.981812,479.939819 515.981812,490.390869 515.519409,500.915344 
	C507.377380,500.939819 499.697662,500.890808 492.002441,500.499573 
	C490.444885,498.256073 488.902832,496.354767 487.546265,494.682190 
	C488.502777,491.540405 489.409973,488.560455 490.416870,485.253052 
	C487.416992,485.253052 485.318268,485.253052 483.351501,485.253052 
	C482.989838,486.698944 482.698944,487.861847 482.162048,490.008331 
	C479.700073,487.832214 477.882721,486.225891 475.952454,484.519745 
	C481.683044,480.577026 483.528381,476.306091 481.327667,472.875671 
	C478.853882,469.019592 470.439301,467.311554 466.029358,470.077667 
	C464.473755,471.053436 462.552155,472.887848 462.455811,474.433594 
	C462.280518,477.245453 463.345367,480.134613 463.931976,483.196167 
	C455.760712,487.517365 455.239960,496.764648 463.514374,500.916626 
	C450.709412,500.940796 438.366638,500.892639 426.207428,500.527344 
	C428.609497,499.338959 430.828003,498.467712 432.722351,497.723785 
	C432.722351,492.566864 432.722351,487.970062 432.722351,483.000000 
	C430.155487,483.000000 427.861267,483.000000 425.567047,483.000000 
	C423.127533,483.000000 420.688049,483.000000 417.966095,483.000000 
	C418.068970,485.354370 418.144562,487.085175 418.233063,489.110748 
	C420.998566,489.110748 423.280151,489.110748 425.750977,489.110748 
	C425.750977,490.833984 425.750977,492.233459 425.750977,493.584595 
	C415.385284,495.643097 409.719971,494.079285 408.038940,488.809235 
	C406.501373,483.989014 408.250427,478.493347 411.948456,476.525146 
	C417.672180,473.478821 421.337128,474.346039 425.410858,479.707581 
	C427.904755,479.333313 430.376587,478.962372 432.846924,478.591644 
	C431.842712,473.492981 428.779449,470.451172 424.252655,469.207306 
	C419.350525,467.860229 414.517548,468.418396 409.459351,469.702484 
	C401.820831,471.641632 398.429504,481.728302 399.434418,488.049713 
	C400.466858,494.544373 404.534149,498.171906 409.514648,500.916626 
	C402.707886,500.939972 396.363037,500.890961 390.011078,500.384399 
	C390.003937,489.676788 390.003937,479.426758 390.003937,469.226318 
	C387.019440,469.226318 384.743988,469.226318 381.796265,469.226318 
	C381.796265,475.242859 381.796265,481.057648 381.796265,486.872406 
	C378.136810,484.111206 375.752075,480.824646 372.937439,477.960632 
	C368.907471,473.860016 366.733185,466.315277 357.981720,469.660004 
	C357.981720,479.940399 357.981720,490.391174 357.530121,500.915314 
	C353.725098,500.939758 350.371643,500.890869 347.011078,500.384399 
	C347.003937,489.668793 347.003937,479.410736 347.003937,469.240540 
	C343.996918,469.240540 341.719666,469.240540 338.981720,469.240540 
	C338.981720,479.931091 338.981720,490.386536 338.521179,500.915344 
	C333.048187,500.940552 328.035736,500.892365 323.182312,500.539673 
	C325.132629,498.706879 327.602661,497.524048 328.589111,495.586090 
	C331.645538,489.581543 327.472626,483.266113 320.130798,481.983887 
	C315.676666,481.206024 311.261353,480.206024 306.215668,479.181335 
	C309.675293,474.812317 316.277985,473.162415 318.675598,476.118042 
	C322.133881,480.381104 325.381714,477.690918 329.295319,476.843414 
	C326.933319,473.802185 324.453247,470.588440 321.217407,469.351105 
	C316.189484,467.428528 310.810303,467.877563 305.472778,469.752991 
	C301.274719,471.228058 299.090759,473.749084 299.068787,477.924622 
	C299.046967,482.076263 300.983948,485.122894 305.365631,486.100891 
	C309.630737,487.052826 313.915680,487.936401 318.131775,489.073090 
	C319.189514,489.358307 320.290741,490.341583 320.844940,491.306702 
	C321.167297,491.868103 320.711670,493.295563 320.140991,493.876221 
	C317.924896,496.130920 308.597046,495.466858 307.430542,492.557098 
	C305.336517,487.333710 301.690948,489.183411 298.105499,489.314606 
	C298.440430,494.980316 301.017670,498.738098 305.514465,500.916626 
	C298.042694,500.940735 291.032990,500.892487 284.184448,500.538269 
	C286.232056,498.617096 288.946716,497.368256 289.853149,495.319458 
	C292.835754,488.577759 289.200500,483.384155 281.200623,481.989990 
	C276.731171,481.211121 272.293121,480.251801 267.267944,479.260803 
	C270.644226,474.777496 277.423859,473.078125 280.029144,476.241058 
	C283.469299,480.417480 286.491150,478.046112 289.883270,477.583221 
	C288.850250,472.461823 287.987335,470.888184 283.446564,469.999146 
	C278.967773,469.122314 274.251099,468.802734 269.699463,469.117004 
	C263.611389,469.537323 260.324005,472.853302 260.012604,477.624634 
	C259.708679,482.281006 262.860229,485.695190 268.834839,486.977905 
	C272.476135,487.759613 276.203186,488.174164 279.806702,489.088593 
	C282.150269,489.683258 283.589478,491.341339 281.576508,493.680023 
	C279.674164,495.890259 270.138306,495.712036 269.242615,493.175568 
	C267.203430,487.401031 263.158905,489.064392 259.347076,489.284241 
	C259.540436,494.906372 261.992889,498.746307 266.516205,500.916565 
	C261.043274,500.939911 256.030731,500.890900 251.012878,500.437805 
	C251.379272,498.181854 251.750961,496.329956 252.231812,493.934082 
	C245.229630,493.934082 238.800964,493.934082 232.306763,493.934082 
	C232.306763,491.765320 232.306763,490.045654 232.306763,487.826355 
	C238.338715,487.826355 244.081879,487.826355 249.788086,487.826355 
	C249.788086,485.376007 249.788086,483.432526 249.788086,480.995087 
	C243.851730,480.995087 238.103882,480.995087 232.300110,480.995087 
	C232.300110,479.100555 232.300110,477.719269 232.300110,475.838898 
	C238.653763,475.838898 244.731094,475.838898 250.796738,475.838898 
	C250.796738,473.387939 250.796738,471.445465 250.796738,469.254456 
	C241.874557,469.254456 233.154541,469.254456 223.981735,469.254456 
	C223.981735,479.949799 223.981735,490.395874 223.544312,500.915222 
	C220.743927,500.939636 218.380936,500.890717 215.999756,500.484344 
	C213.806946,496.176575 211.632324,492.226288 209.422318,488.211700 
	C209.661407,487.936737 209.970367,487.543640 210.317520,487.187775 
	C217.163727,480.169495 215.171387,471.228760 205.711441,469.524933 
	C199.156525,468.344360 192.217224,469.297943 184.981705,469.297943 
	C184.981705,479.937347 184.981705,490.389648 184.519348,500.915405 
	C176.379379,500.940735 168.701797,500.892700 161.222321,500.520325 
	C169.234543,499.576111 175.547592,494.085480 175.993088,487.473694 
	C176.672333,477.392944 173.016922,470.975739 163.902267,469.983521 
	C157.107941,469.243927 150.252548,469.065338 142.981735,468.609100 
	C142.981735,479.980194 142.981735,490.411072 142.544312,500.915253 
	C139.743927,500.939636 137.380936,500.890717 135.000153,500.486206 
	C132.737228,496.227112 130.492081,492.323669 128.232941,488.395905 
	C128.871475,487.704834 129.433167,487.096741 129.995087,486.488831 
	C136.155121,479.824677 133.877441,471.630768 124.939964,470.075531 
	C118.229240,468.907776 111.288231,469.063385 103.981712,468.600159 
	C103.981712,479.963196 103.981712,490.402588 103.530106,500.915314 
	C99.725075,500.939758 96.371658,500.890869 93.011086,500.384399 
	C93.003937,489.668793 93.003937,479.410736 93.003937,469.240540 
	C89.996933,469.240540 87.719658,469.240540 84.981712,469.240540 
	C84.981712,479.931091 84.981712,490.386536 84.544296,500.915283 
	C81.743935,500.939667 79.380981,500.890747 76.998978,500.479248 
	C72.635704,490.671326 68.391411,481.177246 63.834179,471.835815 
	C63.187531,470.510315 61.064152,469.263885 59.544571,469.161285 
	C57.451046,469.019958 53.950462,469.363739 53.355343,470.604340 
	C48.590900,480.536407 44.369583,490.729004 39.544579,500.915222 
	C36.744217,500.939697 34.381268,500.890839 32.011246,500.384705 
	C32.004169,489.695251 32.004169,479.463074 32.004169,469.378906 
	C28.939541,469.378906 26.559393,469.378906 23.857807,469.378906 
	C23.857807,473.353821 23.857807,476.955566 23.857807,480.726379 
	C18.475489,480.726379 13.431383,480.726379 7.902155,480.726379 
	C7.902155,476.727203 7.902155,472.988739 7.902155,469.000000 
	C5.277874,469.000000 3.138937,469.000000 1.000000,469.000000 
M346.027191,381.559082 
	C352.896393,385.781128 360.141327,386.218506 368.100067,385.189423 
	C379.492676,383.716248 389.086060,379.173004 397.141510,371.294434 
	C407.321411,361.338104 414.538971,349.214447 420.993256,336.697296 
	C430.876312,317.530457 440.064056,298.000793 450.161469,278.950867 
	C454.640381,270.500946 459.508514,261.954559 467.973938,256.478271 
	C471.834045,253.981201 474.275604,254.723785 474.924530,259.142975 
	C475.899567,265.782776 476.480621,272.491730 476.961914,279.190491 
	C478.060394,294.480286 478.867310,309.791626 480.037170,325.075500 
	C481.097534,338.928894 483.138153,352.574799 487.833954,365.810974 
	C493.392456,381.478668 503.788635,387.799469 518.434753,387.861572 
	C534.499512,387.929688 548.257690,381.337189 559.954224,370.513275 
	C571.382996,359.937073 580.145142,347.265717 588.006165,333.932892 
	C590.833984,329.136688 593.558105,324.279358 596.510925,319.133667 
	C597.074036,322.904236 597.411682,326.005096 598.012451,329.054138 
	C602.526367,351.962280 615.917175,367.509583 637.515503,375.957916 
	C652.274475,381.731018 667.485229,382.213501 682.931702,379.028137 
	C705.533325,374.367218 723.696472,362.833557 737.346741,344.228210 
	C750.317200,326.549438 756.113342,306.963013 754.158630,284.906555 
	C753.349792,275.779938 751.638611,267.048462 747.443604,259.055725 
	C735.970032,237.195053 717.213806,225.929138 693.004456,224.121292 
	C671.625061,222.524780 651.543152,227.370041 633.976868,240.097809 
	C624.515442,246.953125 615.338867,254.419876 611.964233,266.447144 
	C611.520447,268.028503 612.304810,269.954468 612.520447,271.720825 
	C614.334351,271.334106 616.608643,271.506348 617.879150,270.459930 
	C622.390930,266.743988 626.499207,262.543762 630.872742,258.653351 
	C639.117249,251.319427 647.845032,244.904129 659.151733,242.950302 
	C668.754639,241.290909 678.233582,240.606583 688.035278,241.863235 
	C708.061096,244.430725 721.836731,255.105545 729.839478,273.117493 
	C735.072632,284.896057 737.012573,297.314819 735.148804,310.448303 
	C732.768127,327.225494 724.647705,340.133545 711.420532,350.202271 
	C696.293945,361.716827 678.580994,363.614685 660.757080,361.733551 
	C637.531433,359.282410 622.917847,344.488068 614.179688,323.776459 
	C610.603210,315.299164 608.733215,306.109070 605.895020,297.305084 
	C605.483521,296.028748 604.024292,294.241425 602.997498,294.205933 
	C601.354126,294.149109 599.392029,295.031250 598.075378,296.128967 
	C596.757385,297.227875 595.892517,298.995819 595.126404,300.611511 
	C588.046692,315.542267 580.318604,330.071472 570.001892,343.097534 
	C562.587708,352.458679 554.453308,361.018219 543.301208,365.847778 
	C532.254822,370.631531 518.280334,371.251221 510.871246,361.172699 
	C507.937927,357.182495 505.482971,352.474701 504.178589,347.718384 
	C499.345001,330.093079 498.216705,311.894348 497.051758,293.751678 
	C496.425873,284.004578 496.616119,274.202393 495.897766,264.464905 
	C495.395233,257.652924 494.419281,250.803284 492.838135,244.164963 
	C491.411774,238.176376 484.488739,234.098969 478.928009,236.275040 
	C472.976685,238.603943 466.174316,241.178055 462.256653,245.783234 
	C453.954590,255.542297 446.362213,266.180054 440.162689,277.388855 
	C430.694427,294.507507 423.022339,312.610626 413.869995,329.916229 
	C407.922546,341.161865 401.140106,352.163849 390.545258,359.838074 
	C381.731873,366.221924 372.347290,370.034302 361.443359,364.147491 
	C353.305573,359.754120 350.045746,352.037079 348.184296,344.030457 
	C345.163483,331.037292 342.951752,317.822479 341.084595,304.604309 
	C339.273010,291.779572 338.255035,278.839508 337.023682,265.937164 
	C336.210724,257.418884 335.761688,248.865555 334.925812,240.349915 
	C333.724274,228.109955 332.730255,215.827469 330.882782,203.679459 
	C329.100464,191.960236 326.890411,180.237488 323.716095,168.837112 
	C322.656677,165.032318 318.632202,160.973434 314.925964,159.207825 
	C306.964478,155.415009 299.099152,159.365448 292.915497,168.197067 
	C283.992950,180.940414 279.134888,195.498779 274.019135,209.906540 
	C264.170990,237.642395 254.874329,265.575226 244.889023,293.260498 
	C241.977844,301.332031 237.947113,309.096802 233.622757,316.532990 
	C229.708466,323.264008 224.822845,323.204041 220.766647,317.168732 
	C219.972031,315.986420 219.356308,314.555115 219.102936,313.157990 
	C217.009232,301.613525 214.826111,290.079376 213.071472,278.481384 
	C211.991806,271.345032 211.665848,264.096954 210.911545,256.908478 
	C209.645447,244.842712 208.370682,232.777176 206.979599,220.725388 
	C205.909775,211.456863 204.990234,202.151367 203.391769,192.968857 
	C201.705872,183.284058 199.293793,173.725647 197.174576,164.000000 
	C216.710754,164.000000 237.031158,164.060577 257.350677,163.955139 
	C262.114441,163.930405 266.898773,163.542038 271.633209,162.980225 
	C288.307404,161.001648 300.173187,152.506363 306.049042,136.551025 
	C310.830231,123.568161 309.480255,111.057091 302.596924,98.986023 
	C298.211060,91.294617 291.642365,86.226456 283.460846,82.093796 
	C294.430634,75.424385 300.669342,66.161423 302.525421,54.005898 
	C304.556274,40.706017 300.608215,29.080578 291.171326,19.952768 
	C282.890594,11.943234 272.296234,8.820601 260.610657,8.930695 
	C236.281525,9.159910 211.948715,9.000001 187.617432,9.000002 
	C185.849823,9.000002 184.082199,9.000003 182.027985,9.000003 
	C182.027985,59.240795 182.027985,108.863312 182.027985,158.406967 
	C175.246887,160.787125 170.144730,164.722290 165.869415,170.236984 
	C152.878754,186.993652 145.146103,206.318726 137.977219,225.934692 
	C127.692085,254.077484 119.809128,282.932190 113.109550,312.107574 
	C110.413551,323.848083 108.145264,335.696259 106.021057,347.556091 
	C103.805550,359.925751 101.864632,372.349030 100.053581,384.785278 
	C98.537659,395.194946 102.887856,398.705780 112.817238,394.902954 
	C121.758804,391.478485 124.845009,384.795013 125.968933,373.902954 
	C127.115654,362.789886 127.584717,351.590912 129.132156,340.539032 
	C131.371262,324.547302 134.390274,308.666290 136.938995,292.716064 
	C141.029922,267.114349 146.481552,241.813568 155.162109,217.367004 
	C158.684860,207.446075 163.501328,197.934189 168.392380,188.583084 
	C169.698044,186.086853 173.302979,183.940445 176.145813,183.491302 
	C177.407059,183.292068 180.357254,187.508530 180.891586,190.065262 
	C183.255020,201.374222 185.262985,212.773209 186.915497,224.209564 
	C188.042389,232.008179 188.241928,239.936020 189.081543,247.781952 
	C190.633453,262.284149 191.987976,276.821991 194.109741,291.244232 
	C195.932343,303.633026 198.219528,316.007111 201.325974,328.125031 
	C202.446564,332.496277 205.820358,337.039429 209.445770,339.857880 
	C216.297256,345.184418 224.000504,343.597809 231.023544,339.388092 
	C238.825073,334.711670 243.538330,326.996948 246.746323,319.124115 
	C256.681854,294.740967 265.777130,270.011475 274.978485,245.334396 
	C281.908173,226.749756 288.330261,207.974228 295.415405,189.450867 
	C296.537109,186.518311 299.800629,182.657333 302.371765,182.417374 
	C306.737396,182.009903 307.369385,187.247620 307.848816,190.485275 
	C310.172394,206.176559 312.184448,221.920868 313.938416,237.687378 
	C315.247009,249.450134 315.887939,261.285522 317.016754,273.070312 
	C318.581238,289.403351 319.803497,305.794861 322.159210,322.018066 
	C323.976898,334.535797 326.703156,347.007324 330.179047,359.169678 
	C332.671997,367.892578 336.897827,376.192932 346.027191,381.559082 
M580.000000,103.667191 
	C580.333130,108.093002 580.371704,112.564560 581.050903,116.936615 
	C583.836487,134.869049 593.276794,148.575760 608.693787,157.839050 
	C623.459534,166.711060 639.800232,168.092453 656.306946,164.834137 
	C670.220032,162.087814 682.140320,154.866776 690.690186,143.463577 
	C702.563232,127.628220 705.915833,109.563179 700.857788,90.488548 
	C696.069641,72.431519 685.023621,59.261944 667.535706,51.790035 
	C656.627014,47.129162 645.515137,45.577049 633.633911,46.853279 
	C618.999023,48.425304 606.425842,54.174690 596.336792,64.423401 
	C586.067566,74.855103 581.126892,88.114029 580.000000,103.667191 
M376.692261,52.058617 
	C366.564331,56.804890 360.116028,65.260574 353.757629,74.321236 
	C353.757629,65.938362 353.757629,57.555492 353.757629,49.246498 
	C346.983734,49.246498 340.713715,49.246498 334.283386,49.246498 
	C334.283386,87.536972 334.283386,125.580490 334.283386,163.665161 
	C340.958832,163.665161 347.346832,163.665161 354.000000,163.665161 
	C354.000000,147.192596 353.790039,131.049850 354.059174,114.915115 
	C354.327362,98.837250 360.808380,88.331406 377.291168,83.169731 
	C383.868500,81.110001 390.951050,80.663536 397.777222,79.487228 
	C397.777222,68.660370 397.777222,58.051987 397.777222,47.025581 
	C390.489563,47.303402 383.701111,48.405472 376.692261,52.058617 
M423.000000,157.414093 
	C423.000000,159.512085 423.000000,161.610092 423.000000,163.627991 
	C430.369354,163.627991 437.091553,163.627991 443.765198,163.627991 
	C443.765198,125.327934 443.765198,87.400345 443.765198,49.286545 
	C436.808533,49.286545 430.088257,49.286545 423.000000,49.286545 
	C423.000000,85.191498 423.000000,120.811188 423.000000,157.414093 
M477.498169,221.100525 
	C480.590179,219.618240 483.694305,218.160629 486.772125,216.649460 
	C501.247772,209.542297 514.740173,200.985519 526.051880,189.357346 
	C529.088806,186.235443 531.288025,182.552490 529.367371,177.848328 
	C527.203491,172.548431 523.345886,169.634445 517.586670,168.961304 
	C510.430511,168.124893 507.088257,173.560379 502.974030,177.601761 
	C492.792114,187.603317 482.821350,197.820099 472.621643,207.803162 
	C470.073303,210.297379 466.654449,211.933746 464.250763,214.533142 
	C462.642609,216.272186 461.554840,218.985275 461.428589,221.326889 
	C461.386047,222.115967 465.056396,223.911697 466.962097,223.821167 
	C470.297272,223.662766 473.580078,222.401733 477.498169,221.100525 
z"/>
<path fill="#E4595A" opacity="1.000000" stroke="none" 
	d="
M498.531464,1.000000 
	C499.000000,55.104500 499.000000,109.209000 499.000000,163.656555 
	C492.029877,163.656555 485.307220,163.656555 478.245819,163.656555 
	C478.164124,162.382721 478.010742,161.104324 478.010437,159.825897 
	C477.998322,108.497826 477.997467,57.169754 478.014709,5.841685 
	C478.015137,4.524489 478.233704,3.207367 478.175262,1.445106 
	C484.687653,1.000000 491.375275,1.000000 498.531464,1.000000 
z"/>
<path fill="#E4595A" opacity="1.000000" stroke="none" 
	d="
M552.531494,1.000000 
	C553.000000,55.104496 553.000000,109.208992 553.000000,163.656540 
	C546.029907,163.656540 539.307190,163.656540 532.245850,163.656540 
	C532.164185,162.382706 532.010803,161.104324 532.010498,159.825912 
	C531.998291,108.497841 531.997437,57.169777 532.014648,5.841713 
	C532.015076,4.524520 532.233704,3.207396 532.175293,1.445119 
	C538.687622,1.000000 545.375305,1.000000 552.531494,1.000000 
z"/>
<path fill="#FFFFFF" opacity="1.000000" stroke="none" 
	d="
M347.018219,500.841919 
	C350.371643,500.890869 353.725098,500.939758 357.970581,500.980347 
	C361.248444,500.929077 363.634247,500.886108 366.482605,500.915894 
	C371.956696,500.940155 376.968262,500.891663 382.423828,500.907013 
	C385.251282,500.927887 387.634766,500.884918 390.018219,500.841919 
	C396.363037,500.890961 402.707886,500.939972 409.976807,500.981049 
	C415.941925,500.930237 420.982880,500.887360 426.023865,500.844452 
	C438.366638,500.892639 450.709412,500.940796 463.977051,500.981018 
	C473.940582,500.929321 482.979279,500.885559 492.017975,500.841797 
	C499.697662,500.890808 507.377380,500.939819 515.959839,500.980408 
	C519.248474,500.929016 521.634277,500.886078 524.482605,500.915894 
	C529.956665,500.940125 534.968262,500.891663 540.423828,500.907043 
	C543.251343,500.927917 545.634766,500.884918 548.018250,500.841949 
	C550.053467,500.890808 552.088745,500.939667 555.000488,500.980133 
	C558.591370,500.928864 561.305725,500.885986 564.484253,500.915955 
	C571.289978,500.941284 577.631409,500.893829 584.417480,500.908905 
	C587.247498,500.928284 589.632874,500.885101 592.018188,500.841919 
	C594.381165,500.890778 596.744080,500.939667 599.985962,500.980286 
	C603.249329,500.928619 605.633728,500.885254 608.018127,500.841919 
	C611.040955,500.890808 614.063782,500.939667 617.997681,500.980652 
	C627.278503,500.929169 635.648315,500.885529 644.018127,500.841858 
	C648.365479,500.890869 652.712830,500.939850 657.981201,500.980988 
	C664.275940,500.930176 669.649658,500.887207 675.023376,500.844238 
	C688.366150,500.892487 701.708984,500.940765 715.974304,500.981018 
	C721.272461,500.930176 725.648132,500.887299 730.023743,500.844421 
	C735.701965,500.892548 741.380249,500.940674 747.983582,500.980774 
	C757.278503,500.929138 765.648315,500.885529 774.018127,500.841858 
	C778.365601,500.890869 782.713013,500.939850 787.980835,500.980957 
	C793.941833,500.930115 798.982483,500.887115 804.023193,500.844116 
	C809.701599,500.892365 815.380066,500.940582 821.983582,500.980774 
	C826.063782,500.981812 829.220459,501.058716 832.373657,500.985809 
	C838.713135,500.839142 845.308228,502.209381 851.000000,498.000000 
	C851.000000,499.333344 851.000000,500.666656 851.000000,502.000000 
	C567.666687,502.000000 284.333344,502.000000 1.439271,501.500000 
	C3.925726,500.947693 5.972911,500.895416 8.482634,500.915894 
	C13.956727,500.940155 18.968283,500.891663 24.423859,500.907013 
	C27.251358,500.927887 29.634838,500.884918 32.018318,500.841980 
	C34.381268,500.890839 36.744217,500.939697 39.985252,500.980286 
	C43.250839,500.929901 45.638348,500.887848 48.490150,500.917358 
	C55.627319,500.941376 62.300186,500.893829 69.417664,500.908875 
	C72.247520,500.928223 74.632782,500.885040 77.018036,500.841858 
	C79.380981,500.890747 81.743935,500.939667 84.985863,500.980255 
	C88.249306,500.928619 90.633774,500.885284 93.018234,500.841919 
	C96.371658,500.890869 99.725075,500.939758 103.970543,500.980316 
	C107.248421,500.929047 109.634262,500.886108 112.480171,500.915863 
	C117.286736,500.940125 121.633224,500.891663 126.429123,500.907135 
	C129.591675,500.927948 132.304810,500.884888 135.017960,500.841827 
	C137.380936,500.890717 139.743927,500.939636 143.007141,500.980591 
	C149.612991,500.929993 155.318604,500.887299 161.024200,500.844635 
	C168.701797,500.892700 176.379379,500.940735 184.959778,500.980408 
	C188.248413,500.929047 190.634247,500.886108 193.481750,500.915894 
	C198.620041,500.941162 203.296661,500.893677 208.417877,500.908813 
	C211.247620,500.928223 213.632797,500.885040 216.017960,500.841797 
	C218.380936,500.890717 220.743927,500.939636 224.007751,500.980652 
	C233.611801,500.929169 242.314987,500.885559 251.018173,500.841919 
	C256.030731,500.890900 261.043274,500.939911 266.979004,500.981018 
	C273.275909,500.930176 278.649628,500.887177 284.023315,500.844208 
	C291.032990,500.892487 298.042694,500.940735 305.977295,500.981079 
	C312.275909,500.930176 317.649628,500.887207 323.023315,500.844208 
	C328.035736,500.892365 333.048187,500.940552 338.962738,500.980347 
	C342.249329,500.928619 344.633759,500.885284 347.018219,500.841919 
z"/>
<path fill="#E4595A" opacity="1.000000" stroke="none" 
	d="
M442.531738,0.999997 
	C443.522461,1.967615 443.803802,3.261332 444.604156,3.853127 
	C454.127380,10.895032 453.017029,23.723181 442.371979,28.865541 
	C431.762756,33.990601 420.012634,29.610981 416.752411,19.316378 
	C415.074829,14.019135 417.263000,7.261825 421.635681,4.075546 
	C422.667847,3.323448 423.588806,2.418728 424.280457,1.292101 
	C430.021149,1.000000 436.042297,1.000000 442.531738,0.999997 
z"/>
<path fill="#E4595A" opacity="1.000000" stroke="none" 
	d="
M851.000000,497.539368 
	C845.308228,502.209381 838.713135,500.839142 832.373657,500.985809 
	C829.220459,501.058716 826.063782,500.981812 822.445251,500.907318 
	C821.981812,490.389069 821.981812,479.936249 821.981812,468.814911 
	C831.879395,470.059326 841.960876,466.132568 850.691833,473.283325 
	C851.000000,475.370575 851.000000,477.741119 850.692444,480.280334 
	C847.255920,484.535004 847.255920,484.535004 851.000000,486.000000 
	C851.000000,489.692902 851.000000,493.385834 851.000000,497.539368 
M843.889465,490.609528 
	C839.776733,485.471649 834.332764,487.295593 829.242065,487.102631 
	C829.242065,490.051544 829.242065,492.310852 829.242065,494.532104 
	C837.663757,495.636597 840.249268,495.067017 843.889465,490.609528 
M832.564636,475.000366 
	C827.166992,474.651794 829.263306,478.117523 829.279663,480.994232 
	C832.758911,480.994232 835.895691,481.247375 838.956787,480.876495 
	C840.284180,480.715668 841.455872,479.269531 842.698242,478.407196 
	C841.680420,477.562103 840.785217,476.324860 839.617310,475.959961 
	C837.657654,475.347595 835.524414,475.290649 832.564636,475.000366 
z"/>
<path fill="#E4595A" opacity="1.000000" stroke="none" 
	d="
M8.020096,500.843140 
	C5.972911,500.895416 3.925726,500.947693 1.439271,501.000000 
	C1.000000,490.645782 1.000000,480.291534 1.000000,469.468658 
	C3.138937,469.000000 5.277874,469.000000 7.902155,469.000000 
	C7.902155,472.988739 7.902155,476.727203 7.902155,480.726379 
	C13.431383,480.726379 18.475489,480.726379 23.857807,480.726379 
	C23.857807,476.955566 23.857807,473.353821 23.857807,469.378906 
	C26.559393,469.378906 28.939541,469.378906 32.004169,469.378906 
	C32.004169,479.463074 32.004169,489.695251 32.011246,500.384705 
	C29.634838,500.884918 27.251358,500.927887 24.431705,500.452637 
	C23.995533,496.018494 23.995533,492.102570 23.995533,488.243866 
	C18.315554,488.243866 13.378332,488.243866 8.020096,488.243866 
	C8.020096,492.598328 8.020096,496.720734 8.020096,500.843140 
z"/>
<path fill="#000000" opacity="1.000000" stroke="none" 
	d="
M851.000000,485.583344 
	C847.255920,484.535004 847.255920,484.535004 850.692444,480.724487 
	C851.000000,482.388885 851.000000,483.777802 851.000000,485.583344 
z"/>
<path fill="#E4595A" opacity="1.000000" stroke="none" 
	d="
M345.729248,381.324158 
	C336.897827,376.192932 332.671997,367.892578 330.179047,359.169678 
	C326.703156,347.007324 323.976898,334.535797 322.159210,322.018066 
	C319.803497,305.794861 318.581238,289.403351 317.016754,273.070312 
	C315.887939,261.285522 315.247009,249.450134 313.938416,237.687378 
	C312.184448,221.920868 310.172394,206.176559 307.848816,190.485275 
	C307.369385,187.247620 306.737396,182.009903 302.371765,182.417374 
	C299.800629,182.657333 296.537109,186.518311 295.415405,189.450867 
	C288.330261,207.974228 281.908173,226.749756 274.978485,245.334396 
	C265.777130,270.011475 256.681854,294.740967 246.746323,319.124115 
	C243.538330,326.996948 238.825073,334.711670 231.023544,339.388092 
	C224.000504,343.597809 216.297256,345.184418 209.445770,339.857880 
	C205.820358,337.039429 202.446564,332.496277 201.325974,328.125031 
	C198.219528,316.007111 195.932343,303.633026 194.109741,291.244232 
	C191.987976,276.821991 190.633453,262.284149 189.081543,247.781952 
	C188.241928,239.936020 188.042389,232.008179 186.915497,224.209564 
	C185.262985,212.773209 183.255020,201.374222 180.891586,190.065262 
	C180.357254,187.508530 177.407059,183.292068 176.145813,183.491302 
	C173.302979,183.940445 169.698044,186.086853 168.392380,188.583084 
	C163.501328,197.934189 158.684860,207.446075 155.162109,217.367004 
	C146.481552,241.813568 141.029922,267.114349 136.938995,292.716064 
	C134.390274,308.666290 131.371262,324.547302 129.132156,340.539032 
	C127.584717,351.590912 127.115654,362.789886 125.968933,373.902954 
	C124.845009,384.795013 121.758804,391.478485 112.817238,394.902954 
	C102.887856,398.705780 98.537659,395.194946 100.053581,384.785278 
	C101.864632,372.349030 103.805550,359.925751 106.021057,347.556091 
	C108.145264,335.696259 110.413551,323.848083 113.109550,312.107574 
	C119.809128,282.932190 127.692085,254.077484 137.977219,225.934692 
	C145.146103,206.318726 152.878754,186.993652 165.869415,170.236984 
	C170.144730,164.722290 175.246887,160.787125 182.027985,158.406967 
	C182.027985,108.863312 182.027985,59.240795 182.027985,9.000003 
	C184.082199,9.000003 185.849823,9.000002 187.617432,9.000002 
	C211.948715,9.000001 236.281525,9.159910 260.610657,8.930695 
	C272.296234,8.820601 282.890594,11.943234 291.171326,19.952768 
	C300.608215,29.080578 304.556274,40.706017 302.525421,54.005898 
	C300.669342,66.161423 294.430634,75.424385 283.460846,82.093796 
	C291.642365,86.226456 298.211060,91.294617 302.596924,98.986023 
	C309.480255,111.057091 310.830231,123.568161 306.049042,136.551025 
	C300.173187,152.506363 288.307404,161.001648 271.633209,162.980225 
	C266.898773,163.542038 262.114441,163.930405 257.350677,163.955139 
	C237.031158,164.060577 216.710754,164.000000 197.174576,164.000000 
	C199.293793,173.725647 201.705872,183.284058 203.391769,192.968857 
	C204.990234,202.151367 205.909775,211.456863 206.979599,220.725388 
	C208.370682,232.777176 209.645447,244.842712 210.911545,256.908478 
	C211.665848,264.096954 211.991806,271.345032 213.071472,278.481384 
	C214.826111,290.079376 217.009232,301.613525 219.102936,313.157990 
	C219.356308,314.555115 219.972031,315.986420 220.766647,317.168732 
	C224.822845,323.204041 229.708466,323.264008 233.622757,316.532990 
	C237.947113,309.096802 241.977844,301.332031 244.889023,293.260498 
	C254.874329,265.575226 264.170990,237.642395 274.019135,209.906540 
	C279.134888,195.498779 283.992950,180.940414 292.915497,168.197067 
	C299.099152,159.365448 306.964478,155.415009 314.925964,159.207825 
	C318.632202,160.973434 322.656677,165.032318 323.716095,168.837112 
	C326.890411,180.237488 329.100464,191.960236 330.882782,203.679459 
	C332.730255,215.827469 333.724274,228.109955 334.925812,240.349915 
	C335.761688,248.865555 336.210724,257.418884 337.023682,265.937164 
	C338.255035,278.839508 339.273010,291.779572 341.084595,304.604309 
	C342.951752,317.822479 345.163483,331.037292 348.184296,344.030457 
	C350.045746,352.037079 353.305573,359.754120 361.443359,364.147491 
	C372.347290,370.034302 381.731873,366.221924 390.545258,359.838074 
	C401.140106,352.163849 407.922546,341.161865 413.869995,329.916229 
	C423.022339,312.610626 430.694427,294.507507 440.162689,277.388855 
	C446.362213,266.180054 453.954590,255.542297 462.256653,245.783234 
	C466.174316,241.178055 472.976685,238.603943 478.928009,236.275040 
	C484.488739,234.098969 491.411774,238.176376 492.838135,244.164963 
	C494.419281,250.803284 495.395233,257.652924 495.897766,264.464905 
	C496.616119,274.202393 496.425873,284.004578 497.051758,293.751678 
	C498.216705,311.894348 499.345001,330.093079 504.178589,347.718384 
	C505.482971,352.474701 507.937927,357.182495 510.871246,361.172699 
	C518.280334,371.251221 532.254822,370.631531 543.301208,365.847778 
	C554.453308,361.018219 562.587708,352.458679 570.001892,343.097534 
	C580.318604,330.071472 588.046692,315.542267 595.126404,300.611511 
	C595.892517,298.995819 596.757385,297.227875 598.075378,296.128967 
	C599.392029,295.031250 601.354126,294.149109 602.997498,294.205933 
	C604.024292,294.241425 605.483521,296.028748 605.895020,297.305084 
	C608.733215,306.109070 610.603210,315.299164 614.179688,323.776459 
	C622.917847,344.488068 637.531433,359.282410 660.757080,361.733551 
	C678.580994,363.614685 696.293945,361.716827 711.420532,350.202271 
	C724.647705,340.133545 732.768127,327.225494 735.148804,310.448303 
	C737.012573,297.314819 735.072632,284.896057 729.839478,273.117493 
	C721.836731,255.105545 708.061096,244.430725 688.035278,241.863235 
	C678.233582,240.606583 668.754639,241.290909 659.151733,242.950302 
	C647.845032,244.904129 639.117249,251.319427 630.872742,258.653351 
	C626.499207,262.543762 622.390930,266.743988 617.879150,270.459930 
	C616.608643,271.506348 614.334351,271.334106 612.520386,271.720825 
	C612.304810,269.954468 611.520447,268.028503 611.964233,266.447144 
	C615.338867,254.419876 624.515442,246.953125 633.976868,240.097809 
	C651.543152,227.370041 671.625061,222.524780 693.004456,224.121292 
	C717.213806,225.929138 735.970032,237.195053 747.443604,259.055725 
	C751.638611,267.048462 753.349792,275.779938 754.158630,284.906555 
	C756.113342,306.963013 750.317200,326.549438 737.346741,344.228210 
	C723.696472,362.833557 705.533325,374.367218 682.931702,379.028137 
	C667.485229,382.213501 652.274475,381.731018 637.515503,375.957916 
	C615.917175,367.509583 602.526367,351.962280 598.012451,329.054138 
	C597.411682,326.005096 597.074036,322.904236 596.510925,319.133667 
	C593.558105,324.279358 590.833984,329.136688 588.006165,333.932892 
	C580.145142,347.265717 571.382996,359.937073 559.954224,370.513275 
	C548.257690,381.337189 534.499512,387.929688 518.434753,387.861572 
	C503.788635,387.799469 493.392456,381.478668 487.833954,365.810974 
	C483.138153,352.574799 481.097534,338.928894 480.037170,325.075500 
	C478.867310,309.791626 478.060394,294.480286 476.961914,279.190491 
	C476.480621,272.491730 475.899567,265.782776 474.924530,259.142975 
	C474.275604,254.723785 471.834045,253.981201 467.973938,256.478271 
	C459.508514,261.954559 454.640381,270.500946 450.161469,278.950867 
	C440.064056,298.000793 430.876312,317.530457 420.993256,336.697296 
	C414.538971,349.214447 407.321411,361.338104 397.141510,371.294434 
	C389.086060,379.173004 379.492676,383.716248 368.100067,385.189423 
	C360.141327,386.218506 352.896393,385.781128 345.729248,381.324158 
M272.400696,133.151047 
	C273.299683,132.761887 274.212952,132.402420 275.095520,131.979050 
	C286.607056,126.456856 289.499512,111.796577 279.347229,102.817329 
	C273.762604,97.877953 266.930359,96.236557 259.917175,96.105881 
	C242.601273,95.783226 225.275299,95.992744 207.953400,96.015640 
	C206.692734,96.017311 205.432343,96.238701 204.235596,96.351898 
	C204.235596,109.667206 204.235596,122.599052 204.235596,136.271042 
	C226.908081,134.809097 249.459671,138.267349 272.400696,133.151047 
M273.432556,66.050484 
	C283.427979,57.397938 281.460358,47.534088 273.143768,42.048412 
	C268.759613,39.156601 262.874115,37.415009 257.590759,37.221432 
	C241.115479,36.617798 224.604065,36.993515 208.106689,37.013203 
	C206.833588,37.014721 205.560699,37.200958 204.366104,37.295162 
	C204.366104,48.686230 204.366104,59.742069 204.366104,70.999832 
	C205.886215,70.999832 207.040497,70.999847 208.194794,70.999825 
	C225.858688,70.999504 243.529358,71.259399 261.181244,70.798637 
	C265.129059,70.695587 269.010956,68.065292 273.432556,66.050484 
z"/>
<path fill="#E4595A" opacity="1.000000" stroke="none" 
	d="
M580.000000,103.197403 
	C581.126892,88.114029 586.067566,74.855103 596.336792,64.423401 
	C606.425842,54.174690 618.999023,48.425304 633.633911,46.853279 
	C645.515137,45.577049 656.627014,47.129162 667.535706,51.790035 
	C685.023621,59.261944 696.069641,72.431519 700.857788,90.488548 
	C705.915833,109.563179 702.563232,127.628220 690.690186,143.463577 
	C682.140320,154.866776 670.220032,162.087814 656.306946,164.834137 
	C639.800232,168.092453 623.459534,166.711060 608.693787,157.839050 
	C593.276794,148.575760 583.836487,134.869049 581.050903,116.936615 
	C580.371704,112.564560 580.333130,108.093002 580.000000,103.197403 
M602.000671,110.139687 
	C602.972351,116.232071 605.333374,121.573273 609.615479,126.187729 
	C623.389465,141.030716 648.498718,143.120514 665.762817,132.521011 
	C676.624268,125.852547 682.544922,115.832535 680.904663,102.714462 
	C679.521179,91.648560 672.851196,84.131844 663.128357,78.987175 
	C653.092163,73.676765 642.610168,72.866013 631.645142,74.946434 
	C612.064697,78.661461 602.000000,90.230804 602.000671,110.139687 
z"/>
<path fill="#E4595A" opacity="1.000000" stroke="none" 
	d="
M377.069061,51.984215 
	C383.701111,48.405472 390.489563,47.303402 397.777222,47.025581 
	C397.777222,58.051987 397.777222,68.660370 397.777222,79.487228 
	C390.951050,80.663536 383.868500,81.110001 377.291168,83.169731 
	C360.808380,88.331406 354.327362,98.837250 354.059174,114.915115 
	C353.790039,131.049850 354.000000,147.192596 354.000000,163.665161 
	C347.346832,163.665161 340.958832,163.665161 334.283386,163.665161 
	C334.283386,125.580490 334.283386,87.536972 334.283386,49.246498 
	C340.713715,49.246498 346.983734,49.246498 353.757629,49.246498 
	C353.757629,57.555492 353.757629,65.938362 353.757629,74.321236 
	C360.116028,65.260574 366.564331,56.804890 377.069061,51.984215 
z"/>
<path fill="#E4595A" opacity="1.000000" stroke="none" 
	d="
M423.000000,156.922485 
	C423.000000,120.811188 423.000000,85.191498 423.000000,49.286545 
	C430.088257,49.286545 436.808533,49.286545 443.765198,49.286545 
	C443.765198,87.400345 443.765198,125.327934 443.765198,163.627991 
	C437.091553,163.627991 430.369354,163.627991 423.000000,163.627991 
	C423.000000,161.610092 423.000000,159.512085 423.000000,156.922485 
z"/>
<path fill="#E4595A" opacity="1.000000" stroke="none" 
	d="
M477.191498,221.351593 
	C473.580078,222.401733 470.297272,223.662766 466.962097,223.821167 
	C465.056396,223.911697 461.386047,222.115967 461.428589,221.326889 
	C461.554840,218.985275 462.642609,216.272186 464.250763,214.533142 
	C466.654449,211.933746 470.073303,210.297379 472.621643,207.803162 
	C482.821350,197.820099 492.792114,187.603317 502.974030,177.601761 
	C507.088257,173.560379 510.430511,168.124893 517.586670,168.961304 
	C523.345886,169.634445 527.203491,172.548431 529.367371,177.848328 
	C531.288025,182.552490 529.088806,186.235443 526.051880,189.357346 
	C514.740173,200.985519 501.247772,209.542297 486.772125,216.649460 
	C483.694305,218.160629 480.590179,219.618240 477.191498,221.351593 
z"/>
<path fill="#E4595A" opacity="1.000000" stroke="none" 
	d="
M524.020081,500.843140 
	C521.634277,500.886078 519.248474,500.929016 516.422241,500.906952 
	C515.981812,490.390869 515.981812,479.939819 515.981812,469.380249 
	C520.837524,468.480499 524.290100,468.824371 527.178040,473.395538 
	C530.355103,478.424286 534.779114,482.665222 539.797302,486.879089 
	C539.797302,481.063110 539.797302,475.247131 539.797302,469.226624 
	C542.743530,469.226624 545.019104,469.226624 548.004150,469.226624 
	C548.004150,479.426697 548.004150,489.677063 548.011230,500.384674 
	C545.634766,500.884918 543.251343,500.927917 540.422729,500.562256 
	C534.860107,493.955688 529.742676,487.757782 524.020081,480.826874 
	C524.020081,488.114197 524.020081,494.478668 524.020081,500.843140 
z"/>
<path fill="#E4595A" opacity="1.000000" stroke="none" 
	d="
M390.011078,500.384369 
	C387.634766,500.884918 385.251282,500.927887 382.422668,500.562195 
	C376.895935,493.898468 371.814362,487.643341 366.020081,480.510925 
	C366.020081,488.038696 366.020081,494.440918 366.020081,500.843140 
	C363.634247,500.886108 361.248444,500.929077 358.422180,500.906982 
	C357.981720,490.391174 357.981720,479.940399 357.981720,469.660004 
	C366.733185,466.315277 368.907471,473.860016 372.937439,477.960632 
	C375.752075,480.824646 378.136810,484.111206 381.796265,486.872406 
	C381.796265,481.057648 381.796265,475.242859 381.796265,469.226318 
	C384.743988,469.226318 387.019440,469.226318 390.003937,469.226318 
	C390.003937,479.426758 390.003937,489.676788 390.011078,500.384369 
z"/>
<path fill="#E4595A" opacity="1.000000" stroke="none" 
	d="
M161.222321,500.520325 
	C155.318604,500.887299 149.612991,500.929993 143.444565,500.907288 
	C142.981735,490.411072 142.981735,479.980194 142.981735,468.609100 
	C150.252548,469.065338 157.107941,469.243927 163.902267,469.983521 
	C173.016922,470.975739 176.672333,477.392944 175.993088,487.473694 
	C175.547592,494.085480 169.234543,499.576111 161.222321,500.520325 
M163.048752,477.007782 
	C159.122818,476.576843 155.196869,476.145905 151.374237,475.726318 
	C151.374237,482.468353 151.374237,488.167084 151.374237,493.984497 
	C157.699341,493.868591 164.255875,495.310822 167.408264,488.047058 
	C169.363754,483.541229 167.126526,480.184601 163.048752,477.007782 
z"/>
<path fill="#E4595A" opacity="1.000000" stroke="none" 
	d="
M426.207428,500.527344 
	C420.982880,500.887360 415.941925,500.930237 410.438782,500.908691 
	C404.534149,498.171906 400.466858,494.544373 399.434418,488.049713 
	C398.429504,481.728302 401.820831,471.641632 409.459351,469.702484 
	C414.517548,468.418396 419.350525,467.860229 424.252655,469.207306 
	C428.779449,470.451172 431.842712,473.492981 432.846924,478.591644 
	C430.376587,478.962372 427.904755,479.333313 425.410858,479.707581 
	C421.337128,474.346039 417.672180,473.478821 411.948456,476.525146 
	C408.250427,478.493347 406.501373,483.989014 408.038940,488.809235 
	C409.719971,494.079285 415.385284,495.643097 425.750977,493.584595 
	C425.750977,492.233459 425.750977,490.833984 425.750977,489.110748 
	C423.280151,489.110748 420.998566,489.110748 418.233063,489.110748 
	C418.144562,487.085175 418.068970,485.354370 417.966095,483.000000 
	C420.688049,483.000000 423.127533,483.000000 425.567047,483.000000 
	C427.861267,483.000000 430.155487,483.000000 432.722351,483.000000 
	C432.722351,487.970062 432.722351,492.566864 432.722351,497.723785 
	C430.828003,498.467712 428.609497,499.338959 426.207428,500.527344 
z"/>
<path fill="#E4595A" opacity="1.000000" stroke="none" 
	d="
M284.184448,500.538269 
	C278.649628,500.887177 273.275909,500.930176 267.439392,500.908691 
	C261.992889,498.746307 259.540436,494.906372 259.347076,489.284241 
	C263.158905,489.064392 267.203430,487.401031 269.242615,493.175568 
	C270.138306,495.712036 279.674164,495.890259 281.576508,493.680023 
	C283.589478,491.341339 282.150269,489.683258 279.806702,489.088593 
	C276.203186,488.174164 272.476135,487.759613 268.834839,486.977905 
	C262.860229,485.695190 259.708679,482.281006 260.012604,477.624634 
	C260.324005,472.853302 263.611389,469.537323 269.699463,469.117004 
	C274.251099,468.802734 278.967773,469.122314 283.446564,469.999146 
	C287.987335,470.888184 288.850250,472.461823 289.883270,477.583221 
	C286.491150,478.046112 283.469299,480.417480 280.029144,476.241058 
	C277.423859,473.078125 270.644226,474.777496 267.267944,479.260803 
	C272.293121,480.251801 276.731171,481.211121 281.200623,481.989990 
	C289.200500,483.384155 292.835754,488.577759 289.853149,495.319458 
	C288.946716,497.368256 286.232056,498.617096 284.184448,500.538269 
z"/>
<path fill="#E4595A" opacity="1.000000" stroke="none" 
	d="
M675.184692,500.538269 
	C669.649658,500.887207 664.275940,500.930176 658.439392,500.908691 
	C652.987854,498.745667 650.533569,494.905151 650.353943,489.273193 
	C653.728638,489.213654 657.355164,487.358582 659.464539,492.582672 
	C660.708008,495.661987 670.450073,496.196472 672.609192,493.653290 
	C674.583740,491.327393 673.148865,489.658600 670.766785,489.089783 
	C666.982544,488.186096 663.081055,487.781799 659.280762,486.934814 
	C653.713623,485.693970 650.810303,482.294434 651.001282,477.589111 
	C651.183899,473.088776 654.621155,469.675507 660.211243,469.071320 
	C663.682983,468.696075 667.270691,468.639465 670.729858,469.063599 
	C677.187927,469.855469 678.033264,470.749969 681.016541,477.607941 
	C677.584778,477.836609 674.647583,480.776184 671.204163,476.326324 
	C668.756592,473.163300 661.819763,474.698700 658.142883,479.109833 
	C663.038696,480.167877 667.357788,480.822266 671.489563,482.088196 
	C674.456543,482.997223 677.926025,484.054840 679.848938,486.220367 
	C684.211670,491.133728 682.009460,497.112366 675.184692,500.538269 
z"/>
<path fill="#E4595A" opacity="1.000000" stroke="none" 
	d="
M251.012878,500.437866 
	C242.314987,500.885559 233.611801,500.929169 224.445175,500.907349 
	C223.981735,490.395874 223.981735,479.949799 223.981735,469.254456 
	C233.154541,469.254456 241.874557,469.254456 250.796738,469.254456 
	C250.796738,471.445465 250.796738,473.387939 250.796738,475.838898 
	C244.731094,475.838898 238.653763,475.838898 232.300110,475.838898 
	C232.300110,477.719269 232.300110,479.100555 232.300110,480.995087 
	C238.103882,480.995087 243.851730,480.995087 249.788086,480.995087 
	C249.788086,483.432526 249.788086,485.376007 249.788086,487.826355 
	C244.081879,487.826355 238.338715,487.826355 232.306763,487.826355 
	C232.306763,490.045654 232.306763,491.765320 232.306763,493.934082 
	C238.800964,493.934082 245.229630,493.934082 252.231812,493.934082 
	C251.750961,496.329956 251.379272,498.181854 251.012878,500.437866 
z"/>
<path fill="#E4595A" opacity="1.000000" stroke="none" 
	d="
M323.182312,500.539673 
	C317.649628,500.887207 312.275909,500.930176 306.439392,500.908691 
	C301.017670,498.738098 298.440430,494.980316 298.105499,489.314606 
	C301.690948,489.183411 305.336517,487.333710 307.430542,492.557098 
	C308.597046,495.466858 317.924896,496.130920 320.140991,493.876221 
	C320.711670,493.295563 321.167297,491.868103 320.844940,491.306702 
	C320.290741,490.341583 319.189514,489.358307 318.131775,489.073090 
	C313.915680,487.936401 309.630737,487.052826 305.365631,486.100891 
	C300.983948,485.122894 299.046967,482.076263 299.068787,477.924622 
	C299.090759,473.749084 301.274719,471.228058 305.472778,469.752991 
	C310.810303,467.877563 316.189484,467.428528 321.217407,469.351105 
	C324.453247,470.588440 326.933319,473.802185 329.295319,476.843414 
	C325.381714,477.690918 322.133881,480.381104 318.675598,476.118042 
	C316.277985,473.162415 309.675293,474.812317 306.215668,479.181335 
	C311.261353,480.206024 315.676666,481.206024 320.130798,481.983887 
	C327.472626,483.266113 331.645538,489.581543 328.589111,495.586090 
	C327.602661,497.524048 325.132629,498.706879 323.182312,500.539673 
z"/>
<path fill="#E4595A" opacity="1.000000" stroke="none" 
	d="
M135.000153,500.486206 
	C132.304810,500.884888 129.591675,500.927948 126.426079,500.550781 
	C124.958023,498.300323 123.645966,496.570801 122.983513,494.620636 
	C121.143669,489.204529 117.581955,487.787292 112.020096,489.623535 
	C112.020096,493.283386 112.020096,497.063263 112.020096,500.843140 
	C109.634262,500.886108 107.248421,500.929047 104.422150,500.906982 
	C103.981712,490.402588 103.981712,479.963196 103.981712,468.600159 
	C111.288231,469.063385 118.229240,468.907776 124.939964,470.075531 
	C133.877441,471.630768 136.155121,479.824677 129.995087,486.488831 
	C129.433167,487.096741 128.871475,487.704834 128.232941,488.395905 
	C130.492081,492.323669 132.737228,496.227112 135.000153,500.486206 
M119.953529,475.048279 
	C117.370285,475.048279 114.787041,475.048279 112.387878,475.048279 
	C112.387878,478.087677 112.387878,480.471863 112.387878,482.999969 
	C114.926086,482.999969 117.083603,482.904907 119.229240,483.023895 
	C121.951263,483.174866 124.716919,482.653961 124.723373,479.633240 
	C124.726440,478.196472 122.174385,476.754211 119.953529,475.048279 
z"/>
<path fill="#E4595A" opacity="1.000000" stroke="none" 
	d="
M215.999756,500.484375 
	C213.632797,500.885040 211.247620,500.928223 208.287323,500.596008 
	C206.263458,498.080383 204.247452,496.124786 203.479263,493.763245 
	C201.650986,488.142761 197.746490,488.547729 193.020096,489.396088 
	C193.020096,493.289490 193.020096,497.066315 193.020096,500.843140 
	C190.634247,500.886108 188.248413,500.929047 185.422134,500.906982 
	C184.981705,490.389648 184.981705,479.937347 184.981705,469.297943 
	C192.217224,469.297943 199.156525,468.344360 205.711441,469.524933 
	C215.171387,471.228760 217.163727,480.169495 210.317520,487.187775 
	C209.970367,487.543640 209.661407,487.936737 209.422318,488.211700 
	C211.632324,492.226288 213.806946,496.176575 215.999756,500.484375 
M203.991837,476.038544 
	C200.501251,475.587524 197.010666,475.136475 193.275787,474.653900 
	C193.275787,477.862671 193.275787,480.245056 193.275787,482.995636 
	C196.333618,482.995636 199.133926,483.166901 201.905365,482.957031 
	C206.511368,482.608185 207.391541,480.413483 203.991837,476.038544 
z"/>
<path fill="#E4595A" opacity="1.000000" stroke="none" 
	d="
M492.002441,500.499573 
	C482.979279,500.885559 473.940582,500.929321 464.439209,500.908691 
	C455.239960,496.764648 455.760712,487.517365 463.931976,483.196167 
	C463.345367,480.134613 462.280518,477.245453 462.455811,474.433594 
	C462.552155,472.887848 464.473755,471.053436 466.029358,470.077667 
	C470.439301,467.311554 478.853882,469.019592 481.327667,472.875671 
	C483.528381,476.306091 481.683044,480.577026 475.952454,484.519745 
	C477.882721,486.225891 479.700073,487.832214 482.162048,490.008331 
	C482.698944,487.861847 482.989838,486.698944 483.351501,485.253052 
	C485.318268,485.253052 487.416992,485.253052 490.416870,485.253052 
	C489.409973,488.560455 488.502777,491.540405 487.546265,494.682190 
	C488.902832,496.354767 490.444885,498.256073 492.002441,500.499573 
M465.104584,492.353088 
	C469.057007,496.400940 470.576202,496.667236 476.480652,494.347198 
	C469.486115,486.226715 468.411804,485.965973 465.104584,492.353088 
M469.603027,475.116577 
	C469.964630,476.705322 470.326233,478.294037 470.687805,479.882812 
	C471.823914,479.384003 473.221405,479.134399 474.011505,478.305634 
	C474.617401,477.670105 474.456940,476.303986 474.637299,475.262787 
	C473.214325,475.152069 471.791321,475.041351 469.603027,475.116577 
z"/>
<path fill="#E4595A" opacity="1.000000" stroke="none" 
	d="
M564.020020,500.843140 
	C561.305725,500.885986 558.591370,500.928864 555.431274,500.906067 
	C559.752747,490.343750 564.519958,479.847107 569.287231,469.350464 
	C578.017822,468.376678 578.024536,468.373718 581.222229,475.617035 
	C584.822693,483.772644 588.409485,491.934265 592.010193,500.467590 
	C589.632874,500.885101 587.247498,500.928284 584.272827,500.575684 
	C582.737122,495.082977 579.768005,492.988007 574.622009,493.973541 
	C573.657654,494.158203 572.602783,494.144165 571.632202,493.976166 
	C566.135925,493.024872 564.418884,496.186005 564.020020,500.843140 
M576.918457,484.564789 
	C576.034851,482.646515 575.151184,480.728271 573.669739,477.512238 
	C572.007141,481.402344 570.953003,483.868805 569.618347,486.991638 
	C572.171753,486.991638 574.124939,487.078857 576.057068,486.916199 
	C576.432373,486.884613 576.725830,485.879486 576.918457,484.564789 
z"/>
<path fill="#E4595A" opacity="1.000000" stroke="none" 
	d="
M48.025848,500.845764 
	C45.638348,500.887848 43.250839,500.929901 40.422661,500.906921 
	C44.369583,490.729004 48.590900,480.536407 53.355343,470.604340 
	C53.950462,469.363739 57.451046,469.019958 59.544571,469.161285 
	C61.064152,469.263885 63.187531,470.510315 63.834179,471.835815 
	C68.391411,481.177246 72.635704,490.671326 76.998978,500.479248 
	C74.632782,500.885040 72.247520,500.928223 69.279762,500.583008 
	C67.304321,498.138885 66.199402,494.664032 64.460869,494.311188 
	C60.340816,493.475037 55.774776,493.505035 51.692440,494.469421 
	C50.059284,494.855225 49.224201,498.619385 48.025848,500.845764 
M60.209431,486.989105 
	C60.711952,486.105499 61.831844,484.993927 61.605019,484.379608 
	C60.821766,482.258484 59.568951,480.310730 58.218285,477.778259 
	C56.774284,481.125092 55.582397,483.887573 54.240227,486.998383 
	C56.171864,486.998383 57.778671,486.998383 60.209431,486.989105 
z"/>
<path fill="#E4595A" opacity="1.000000" stroke="none" 
	d="
M730.195679,500.534363 
	C725.648132,500.887299 721.272461,500.930176 716.436523,500.908752 
	C708.537109,497.663483 703.877563,490.186920 705.038513,483.294037 
	C706.666687,473.627045 711.834045,468.913696 721.793945,468.010773 
	C729.884644,467.277313 735.965942,471.400696 738.763550,479.516876 
	C734.779114,480.486694 731.243530,481.876678 728.046448,476.941864 
	C725.678406,473.286804 718.200439,474.615997 715.349426,478.258698 
	C712.672180,481.679321 713.235291,489.673920 716.360596,492.614594 
	C719.862122,495.909241 727.628723,496.192535 729.647827,492.236267 
	C732.099182,487.432892 735.445190,489.408173 738.731079,489.192200 
	C738.736938,495.258453 736.343872,498.339661 730.195679,500.534363 
z"/>
<path fill="#E4595A" opacity="1.000000" stroke="none" 
	d="
M804.176514,500.543213 
	C798.982483,500.887115 793.941833,500.930115 788.438965,500.908630 
	C783.069763,497.709503 780.337219,493.678741 780.888489,487.406586 
	C781.408203,481.493500 781.000000,475.498840 781.000000,469.274658 
	C783.432556,469.274658 785.483032,469.274658 788.001770,469.274658 
	C788.001770,475.063049 787.563721,480.730255 788.189636,486.277374 
	C788.494873,488.982025 790.189941,492.419678 792.351318,493.763031 
	C794.327515,494.991302 798.572998,494.868134 800.372070,493.473999 
	C802.418396,491.888275 803.560059,488.303192 803.847961,485.460876 
	C804.379028,480.217529 803.999756,474.881958 803.999756,469.296204 
	C806.392456,469.296204 808.443420,469.296204 810.987549,469.296204 
	C810.987549,477.014893 811.591492,484.696808 810.682800,492.195465 
	C810.331848,495.091797 806.549072,497.572327 804.176514,500.543213 
z"/>
<path fill="#E4595A" opacity="1.000000" stroke="none" 
	d="
M644.012817,500.437805 
	C635.648315,500.885529 627.278503,500.929169 618.445251,500.907349 
	C617.981812,490.419495 617.981812,479.997040 617.981812,469.289185 
	C620.735413,469.289185 623.115601,469.289185 625.984375,469.289185 
	C625.984375,477.451202 625.984375,485.495361 625.984375,493.955750 
	C632.528503,493.955750 638.602173,493.955750 645.227173,493.955750 
	C644.750122,496.333038 644.378845,498.183380 644.012817,500.437805 
z"/>
<path fill="#E4595A" opacity="1.000000" stroke="none" 
	d="
M774.011108,500.430725 
	C765.648315,500.885529 757.278503,500.929138 748.445251,500.907349 
	C747.981812,490.427002 747.981812,480.012054 747.981812,469.300293 
	C750.712402,469.300293 753.091309,469.300293 755.951050,469.300293 
	C755.951050,477.419067 755.951050,485.455933 755.951050,493.901184 
	C762.480103,493.901184 768.550293,493.901184 774.657043,493.901184 
	C774.409546,496.220184 774.206787,498.119873 774.011108,500.430725 
z"/>
<path fill="#E4595A" opacity="1.000000" stroke="none" 
	d="
M347.011078,500.384369 
	C344.633759,500.885284 342.249329,500.928619 339.423279,500.906982 
	C338.981720,490.386536 338.981720,479.931091 338.981720,469.240540 
	C341.719666,469.240540 343.996918,469.240540 347.003937,469.240540 
	C347.003937,479.410736 347.003937,489.668793 347.011078,500.384369 
z"/>
<path fill="#E4595A" opacity="1.000000" stroke="none" 
	d="
M93.011086,500.384369 
	C90.633774,500.885284 88.249306,500.928619 85.423279,500.906982 
	C84.981712,490.386536 84.981712,479.931091 84.981712,469.240540 
	C87.719658,469.240540 89.996933,469.240540 93.003937,469.240540 
	C93.003937,479.410736 93.003937,489.668793 93.011086,500.384369 
z"/>
<path fill="#E4595A" opacity="1.000000" stroke="none" 
	d="
M608.010986,500.384338 
	C605.633728,500.885254 603.249329,500.928619 600.423340,500.906952 
	C599.981812,490.386475 599.981812,479.931030 599.981812,469.240540 
	C602.719666,469.240540 604.996948,469.240540 608.003906,469.240540 
	C608.003906,479.410706 608.003906,489.668762 608.010986,500.384338 
z"/>
<path fill="#000000" opacity="1.000000" stroke="none" 
	d="
M8.482634,500.915894 
	C8.020096,496.720734 8.020096,492.598328 8.020096,488.243866 
	C13.378332,488.243866 18.315554,488.243866 23.995533,488.243866 
	C23.995533,492.102570 23.995533,496.018494 23.987686,500.388794 
	C18.968283,500.891663 13.956727,500.940155 8.482634,500.915894 
z"/>
<path fill="#000000" opacity="1.000000" stroke="none" 
	d="
M366.482605,500.915894 
	C366.020081,494.440918 366.020081,488.038696 366.020081,480.510925 
	C371.814362,487.643341 376.895935,493.898468 381.978638,500.498352 
	C376.968262,500.891663 371.956696,500.940155 366.482605,500.915894 
z"/>
<path fill="#000000" opacity="1.000000" stroke="none" 
	d="
M524.482605,500.915894 
	C524.020081,494.478668 524.020081,488.114197 524.020081,480.826874 
	C529.742676,487.757782 534.860107,493.955688 539.978638,500.498413 
	C534.968262,500.891663 529.956665,500.940125 524.482605,500.915894 
z"/>
<path fill="#000000" opacity="1.000000" stroke="none" 
	d="
M193.481750,500.915894 
	C193.020096,497.066315 193.020096,493.289490 193.020096,489.396088 
	C197.746490,488.547729 201.650986,488.142761 203.479263,493.763245 
	C204.247452,496.124786 206.263458,498.080383 207.842743,500.533356 
	C203.296661,500.893677 198.620041,500.941162 193.481750,500.915894 
z"/>
<path fill="#000000" opacity="1.000000" stroke="none" 
	d="
M112.480171,500.915863 
	C112.020096,497.063263 112.020096,493.283386 112.020096,489.623535 
	C117.581955,487.787292 121.143669,489.204529 122.983513,494.620636 
	C123.645966,496.570801 124.958023,498.300323 125.976669,500.486877 
	C121.633224,500.891663 117.286736,500.940125 112.480171,500.915863 
z"/>
<path fill="#000000" opacity="1.000000" stroke="none" 
	d="
M564.484253,500.915924 
	C564.418884,496.186005 566.135925,493.024872 571.632202,493.976166 
	C572.602783,494.144165 573.657654,494.158203 574.622009,493.973541 
	C579.768005,492.988007 582.737122,495.082977 583.828186,500.513184 
	C577.631409,500.893829 571.289978,500.941284 564.484253,500.915924 
z"/>
<path fill="#000000" opacity="1.000000" stroke="none" 
	d="
M48.490147,500.917358 
	C49.224201,498.619385 50.059284,494.855225 51.692440,494.469421 
	C55.774776,493.505035 60.340816,493.475037 64.460869,494.311188 
	C66.199402,494.664032 67.304321,498.138885 68.835159,500.520447 
	C62.300186,500.893829 55.627319,500.941376 48.490147,500.917358 
z"/>
<path fill="#000000" opacity="1.000000" stroke="none" 
	d="
M843.889587,490.999878 
	C840.249268,495.067017 837.663757,495.636597 829.242065,494.532104 
	C829.242065,492.310852 829.242065,490.051544 829.242065,487.102631 
	C834.332764,487.295593 839.776733,485.471649 843.889587,490.999878 
z"/>
<path fill="#000000" opacity="1.000000" stroke="none" 
	d="
M833.014404,475.000183 
	C835.524414,475.290649 837.657654,475.347595 839.617310,475.959961 
	C840.785217,476.324860 841.680420,477.562103 842.698242,478.407196 
	C841.455872,479.269531 840.284180,480.715668 838.956787,480.876495 
	C835.895691,481.247375 832.758911,480.994232 829.279663,480.994232 
	C829.263306,478.117523 827.166992,474.651794 833.014404,475.000183 
z"/>
<path fill="#000000" opacity="1.000000" stroke="none" 
	d="
M272.095520,133.415283 
	C249.459671,138.267349 226.908081,134.809097 204.235596,136.271042 
	C204.235596,122.599052 204.235596,109.667206 204.235596,96.351898 
	C205.432343,96.238701 206.692734,96.017311 207.953400,96.015640 
	C225.275299,95.992744 242.601273,95.783226 259.917175,96.105881 
	C266.930359,96.236557 273.762604,97.877953 279.347229,102.817329 
	C289.499512,111.796577 286.607056,126.456856 275.095520,131.979050 
	C274.212952,132.402420 273.299683,132.761887 272.095520,133.415283 
z"/>
<path fill="#000000" opacity="1.000000" stroke="none" 
	d="
M273.177856,66.324493 
	C269.010956,68.065292 265.129059,70.695587 261.181244,70.798637 
	C243.529358,71.259399 225.858688,70.999504 208.194794,70.999825 
	C207.040497,70.999847 205.886215,70.999832 204.366104,70.999832 
	C204.366104,59.742069 204.366104,48.686230 204.366104,37.295162 
	C205.560699,37.200958 206.833588,37.014721 208.106689,37.013203 
	C224.604065,36.993515 241.115479,36.617798 257.590759,37.221432 
	C262.874115,37.415009 268.759613,39.156601 273.143768,42.048412 
	C281.460358,47.534088 283.427979,57.397938 273.177856,66.324493 
z"/>
<path fill="#000000" opacity="1.000000" stroke="none" 
	d="
M602.000366,109.685837 
	C602.000000,90.230804 612.064697,78.661461 631.645142,74.946434 
	C642.610168,72.866013 653.092163,73.676765 663.128357,78.987175 
	C672.851196,84.131844 679.521179,91.648560 680.904663,102.714462 
	C682.544922,115.832535 676.624268,125.852547 665.762817,132.521011 
	C648.498718,143.120514 623.389465,141.030716 609.615479,126.187729 
	C605.333374,121.573273 602.972351,116.232071 602.000366,109.685837 
z"/>
<path fill="#000000" opacity="1.000000" stroke="none" 
	d="
M163.421524,477.165955 
	C167.126526,480.184601 169.363754,483.541229 167.408264,488.047058 
	C164.255875,495.310822 157.699341,493.868591 151.374237,493.984497 
	C151.374237,488.167084 151.374237,482.468353 151.374237,475.726318 
	C155.196869,476.145905 159.122818,476.576843 163.421524,477.165955 
z"/>
<path fill="#000000" opacity="1.000000" stroke="none" 
	d="
M120.366661,475.181366 
	C122.174385,476.754211 124.726440,478.196472 124.723373,479.633240 
	C124.716919,482.653961 121.951263,483.174866 119.229240,483.023895 
	C117.083603,482.904907 114.926086,482.999969 112.387878,482.999969 
	C112.387878,480.471863 112.387878,478.087677 112.387878,475.048279 
	C114.787041,475.048279 117.370285,475.048279 120.366661,475.181366 
z"/>
<path fill="#000000" opacity="1.000000" stroke="none" 
	d="
M204.371826,476.168030 
	C207.391541,480.413483 206.511368,482.608185 201.905365,482.957031 
	C199.133926,483.166901 196.333618,482.995636 193.275787,482.995636 
	C193.275787,480.245056 193.275787,477.862671 193.275787,474.653900 
	C197.010666,475.136475 200.501251,475.587524 204.371826,476.168030 
z"/>
<path fill="#000000" opacity="1.000000" stroke="none" 
	d="
M465.105408,491.969849 
	C468.411804,485.965973 469.486115,486.226715 476.480652,494.347198 
	C470.576202,496.667236 469.057007,496.400940 465.105408,491.969849 
z"/>
<path fill="#000000" opacity="1.000000" stroke="none" 
	d="
M469.985687,475.023621 
	C471.791321,475.041351 473.214325,475.152069 474.637329,475.262787 
	C474.456940,476.303986 474.617401,477.670105 474.011505,478.305634 
	C473.221405,479.134399 471.823914,479.384003 470.687805,479.882812 
	C470.326233,478.294037 469.964630,476.705322 469.985687,475.023621 
z"/>
<path fill="#000000" opacity="1.000000" stroke="none" 
	d="
M576.987793,484.944092 
	C576.725830,485.879486 576.432373,486.884613 576.057068,486.916199 
	C574.124939,487.078857 572.171753,486.991638 569.618347,486.991638 
	C570.953003,483.868805 572.007141,481.402344 573.669739,477.512238 
	C575.151184,480.728271 576.034851,482.646515 576.987793,484.944092 
z"/>
<path fill="#000000" opacity="1.000000" stroke="none" 
	d="
M59.797455,486.993744 
	C57.778671,486.998383 56.171864,486.998383 54.240227,486.998383 
	C55.582397,483.887573 56.774284,481.125092 58.218285,477.778259 
	C59.568951,480.310730 60.821766,482.258484 61.605019,484.379608 
	C61.831844,484.993927 60.711952,486.105499 59.797455,486.993744 
z"/>
</svg>